<?xml version="1.0" encoding="UTF-8"?>
<svg version="1.1" xmlns="http://www.w3.org/2000/svg" width="2604" height="510" viewBox="0 0 2604 510">
<path d="M0 0 C0.94734361 -0.00235223 1.89468722 -0.00470446 2.87073821 -0.00712797 C6.07540702 -0.01383531 9.28003544 -0.01335922 12.48471069 -0.01294994 C14.79347388 -0.0162475 17.10223648 -0.01997283 19.41099834 -0.02409142 C25.77926731 -0.03413204 32.14752686 -0.03783153 38.51580262 -0.04048073 C44.67121498 -0.04349749 50.82662085 -0.05212466 56.98202846 -0.06002467 C73.47931363 -0.08088086 89.97660061 -0.0913411 106.47389589 -0.10015428 C114.27752851 -0.1043595 122.08116035 -0.10958169 129.88479232 -0.11483881 C156.59407629 -0.13273088 183.30336047 -0.14772679 210.01264954 -0.155159 C211.6898792 -0.15563376 213.36710886 -0.15610964 215.04433852 -0.15658666 C215.876101 -0.15682303 216.70786347 -0.15705941 217.56483087 -0.15730295 C221.77900956 -0.15850416 225.99318825 -0.1597196 230.20736694 -0.16094494 C231.04368669 -0.16118509 231.88000643 -0.16142524 232.74166919 -0.16167267 C259.85426852 -0.16956476 286.96682408 -0.19299377 314.07940429 -0.22550088 C342.73953369 -0.25980075 371.39963749 -0.27951034 400.05978775 -0.28280324 C403.20629121 -0.28322078 406.35279465 -0.28370034 409.4992981 -0.28422642 C410.27406436 -0.28434961 411.04883063 -0.2844728 411.84707466 -0.28459973 C424.31475244 -0.28693168 436.78237942 -0.30259152 449.25003909 -0.32306826 C461.78388041 -0.34332698 474.3176607 -0.34880337 486.85151535 -0.33929763 C493.64165754 -0.3345415 500.43162493 -0.33669455 507.22174644 -0.35605907 C513.43848409 -0.3736354 519.65493575 -0.37273768 525.87167621 -0.35716178 C528.12008846 -0.35477732 530.36852023 -0.35915251 532.61690259 -0.37099043 C554.48219774 -0.47897714 554.48219774 -0.47897714 562.90023804 4.13422108 C564.27386238 4.88157875 564.27386238 4.88157875 565.6752367 5.64403456 C566.77661236 6.38167689 566.77661236 6.38167689 567.90023804 7.13422108 C567.90023804 7.79422108 567.90023804 8.45422108 567.90023804 9.13422108 C568.51898804 9.38172108 569.13773804 9.62922108 569.77523804 9.88422108 C572.25092491 11.34050747 572.85148806 12.51234614 573.90023804 15.13422108 C574.56023804 15.13422108 575.22023804 15.13422108 575.90023804 15.13422108 C576.6985526 16.50537204 577.48854414 17.88136992 578.27523804 19.25922108 C578.71609741 20.0249242 579.15695679 20.79062733 579.61117554 21.57953358 C582.13979778 26.59080311 583.15038627 30.94964923 583.16030025 36.55494595 C583.16736585 37.83441463 583.17443144 39.11388332 583.18171114 40.43212378 C583.17945997 41.84467418 583.17701349 43.25722429 583.1743927 44.66977406 C583.17884657 46.17607971 583.1841611 47.68238303 583.19026142 49.18868291 C583.20443429 53.32495356 583.20610485 57.46114903 583.20566452 61.59744048 C583.20731337 66.05978971 583.22038124 70.52210803 583.2318573 74.9844408 C583.25470188 84.74077799 583.26262744 94.49709342 583.26768374 104.25345373 C583.27094161 110.34725137 583.27746467 116.4410427 583.28468513 122.53483677 C583.30425093 139.4121178 583.32065507 156.28939296 583.32356167 173.16668606 C583.32374924 174.24660231 583.32393681 175.32651855 583.32413006 176.43915953 C583.32449631 178.6283505 583.32486001 180.81754146 583.32522117 183.00673242 C583.32540398 184.0934277 583.3255868 185.18012298 583.32577515 186.29974842 C583.32604597 187.93178483 583.32604597 187.93178483 583.32632226 189.59679167 C583.32986312 207.22257595 583.35688006 224.848238 583.39427304 242.47397991 C583.43237074 260.57703301 583.45171926 278.68002548 583.45202118 296.78311956 C583.45260545 306.94452223 583.46107751 317.1057791 583.49001884 327.2671442 C583.51455235 335.92062976 583.52180235 344.57391637 583.50677132 353.22742732 C583.4996103 357.64013189 583.50042479 362.05244375 583.52318192 366.4651041 C583.54384575 370.51075036 583.5411032 374.55570384 583.52030707 378.6013432 C583.51682624 380.05897726 583.52166223 381.51666206 583.53601151 382.97422965 C583.65052195 395.41531516 580.85424192 404.91160918 573.23226929 414.80609608 C571.90023804 416.13422108 571.90023804 416.13422108 569.90023804 416.13422108 C569.90023804 416.79422108 569.90023804 417.45422108 569.90023804 418.13422108 C569.24023804 418.13422108 568.58023804 418.13422108 567.90023804 418.13422108 C567.90023804 418.79422108 567.90023804 419.45422108 567.90023804 420.13422108 C566.74523804 420.75297108 565.59023804 421.37172108 564.40023804 422.00922108 C563.75055054 422.35726795 563.10086304 422.70531483 562.43148804 423.06390858 C555.6983417 425.91094885 549.3926609 426.42487449 542.18523693 426.38869667 C541.2321241 426.39190315 540.27901127 426.39510963 539.29701623 426.39841327 C536.10278032 426.4067156 532.90873179 426.40078808 529.7144928 426.39491749 C527.40141372 426.39793806 525.08833563 426.40182707 522.77525932 426.40651006 C516.41827079 426.41681094 510.06133853 426.41460289 503.70434535 426.41032946 C497.55279566 426.40714499 491.40125533 426.41527014 485.24971029 426.42208972 C471.11428358 426.4373294 456.97887478 426.4390348 442.84344157 426.43656669 C431.92743818 426.4347339 421.01144066 426.43649334 410.095438 426.44079113 C408.5270362 426.44139353 406.9586344 426.44199473 405.3902326 426.44259473 C403.02678257 426.44350199 400.66333255 426.44441066 398.29988254 426.44532708 C376.32564462 426.45375666 354.35140891 426.45809229 332.37716961 426.45392036 C331.54879053 426.45376399 330.72041146 426.45360761 329.86692999 426.4534465 C325.66840004 426.45264072 321.46987009 426.45179495 317.27134015 426.4509332 C316.43750289 426.45076211 315.60366563 426.45059102 314.74456057 426.45041475 C313.05833897 426.45006809 311.37211737 426.44971956 309.68589577 426.44936916 C283.44914305 426.44401213 257.21242394 426.45194183 230.97567749 426.47040272 C201.49622617 426.49112098 172.01679566 426.50184574 142.53733665 426.49782723 C139.39371956 426.49743189 136.25010246 426.49707034 133.10648537 426.49672985 C132.3324516 426.49663912 131.55841784 426.49654839 130.76092851 426.49645491 C119.07849667 426.49528916 107.39608587 426.50193551 95.71365929 426.51254177 C82.42622256 426.52459291 69.13883215 426.52615374 55.85139474 426.5137516 C49.07137566 426.50770645 42.29145255 426.50678932 35.51143837 426.51875401 C29.30418861 426.52958067 23.09710534 426.52654761 16.88986347 426.51249232 C14.64496893 426.50983653 12.40006148 426.51223948 10.15517958 426.52022818 C-16.93473077 426.60993547 -16.93473077 426.60993547 -25.09976196 420.13422108 C-25.09976196 419.47422108 -25.09976196 418.81422108 -25.09976196 418.13422108 C-25.96601196 417.79390858 -25.96601196 417.79390858 -26.84976196 417.44672108 C-29.69716005 415.78573886 -31.22043389 413.81897547 -33.09976196 411.13422108 C-33.09976196 410.47422108 -33.09976196 409.81422108 -33.09976196 409.13422108 C-33.75976196 409.13422108 -34.41976196 409.13422108 -35.09976196 409.13422108 C-39.82941861 399.93128593 -40.81821722 392.00917435 -40.72795105 381.78102589 C-40.73300566 380.25914845 -40.74024151 378.73727698 -40.74944919 377.21541899 C-40.76826809 373.06392435 -40.75619697 368.91302385 -40.73872626 364.76154482 C-40.72529985 360.27275838 -40.74080802 355.78405588 -40.75254822 351.2952776 C-40.77088861 342.51467035 -40.76243719 333.73428624 -40.74445999 324.95368604 C-40.7304141 317.81682883 -40.72654547 310.68003205 -40.72990227 303.54316235 C-40.73037971 302.52605379 -40.73085715 301.50894524 -40.73134906 300.46101522 C-40.73237542 298.3945892 -40.73343078 296.32816319 -40.73451483 294.26173719 C-40.74307426 276.00670354 -40.72643 257.7517774 -40.69668579 239.49676991 C-40.66783751 221.79132035 -40.66077187 204.08602559 -40.67617798 186.38055897 C-40.69294384 167.08604915 -40.69697139 147.79161275 -40.67946762 128.49710101 C-40.67762328 126.43934485 -40.67578855 124.38158869 -40.67396355 122.32383251 C-40.67305146 121.31144619 -40.67213937 120.29905988 -40.67119964 119.25599519 C-40.66559763 112.12768686 -40.66889818 104.99941443 -40.6755085 97.87110806 C-40.68324447 89.18437503 -40.67647915 80.4977943 -40.65133346 71.81109194 C-40.63884606 67.38055958 -40.63268278 62.95026424 -40.64387512 58.51972294 C-40.65393313 54.46157684 -40.64542494 50.40390294 -40.62229394 46.34581419 C-40.61714482 44.88035071 -40.61867816 43.41484475 -40.62768859 41.94939993 C-40.7065742 27.95176447 -36.8670675 19.27250653 -27.41226196 9.13422108 C-25.09976196 7.13422108 -25.09976196 7.13422108 -22.09976196 7.13422108 C-22.09976196 6.47422108 -22.09976196 5.81422108 -22.09976196 5.13422108 C-20.49602887 4.48731185 -18.89175891 3.84173344 -17.28726196 3.19672108 C-16.39394165 2.83707264 -15.50062134 2.4774242 -14.58023071 2.10687733 C-9.59580686 0.15235522 -5.29488122 -0.00883633 0 0 Z " fill="#2157A6" transform="translate(2013.0997619628906,13.865778923034668)"/>
<path d="M0 0 C27.06 0 54.12 0 82 0 C82.33 58.74 82.66 117.48 83 178 C83.66 177.01 84.32 176.02 85 175 C85.66 175 86.32 175 87 175 C87 174.01 87 173.02 87 172 C89.375 169.3125 89.375 169.3125 92 167 C92.66 167 93.32 167 94 167 C94.226875 166.38125 94.45375 165.7625 94.6875 165.125 C96.37929835 162.38589791 97.99244161 161.94975528 101 161 C101 160.34 101 159.68 101 159 C101.886875 158.649375 102.77375 158.29875 103.6875 157.9375 C108.494827 155.89950539 112.98379749 153.28708231 117.5234375 150.71875 C125.21297026 146.91718324 132.47808708 145.40918129 141 144.75 C142.00603271 144.6677417 143.01206543 144.5854834 144.04858398 144.50073242 C152.81706787 143.86321452 161.26294826 144.20971391 170 145 C173.68215394 145.20958285 177.36446701 145.41603075 181.046875 145.62109375 C184.02194662 146.0028159 186.26857359 146.79632057 189 148 C190.03125 148.268125 191.0625 148.53625 192.125 148.8125 C198.27654146 150.51226803 204.23291838 153.33734138 209.69140625 156.6171875 C211.85072644 157.91058741 213.54463268 158.54530235 216 159 C216 159.66 216 160.32 216 161 C216.70125 161.226875 217.4025 161.45375 218.125 161.6875 C222.96710174 163.89802471 226.42648757 167.1835848 229.75 171.25 C231.70631884 174.02359938 231.70631884 174.02359938 234 175 C236.12837953 178.1925693 237.66592079 181.40824827 239 185 C239.66 185 240.32 185 241 185 C254.37103047 210.05190259 254.30807126 234.90800456 254.20278788 262.70180988 C254.19010278 266.6281646 254.18909626 270.55452395 254.18673706 274.480896 C254.18057364 281.88219611 254.16423406 289.28343563 254.14403808 296.68470931 C254.11728834 306.70996013 254.10666482 316.73522806 254.09503365 326.76050568 C254.0763484 342.50704898 254.03646907 358.25346455 254 374 C226.61 374 199.22 374 171 374 C170.95101563 364.77804687 170.90203125 355.55609375 170.8515625 346.0546875 C170.81615511 340.19400132 170.78026152 334.33332471 170.7421875 328.47265625 C170.68191475 319.18117505 170.62356263 309.88971171 170.578125 300.59814453 C170.54501441 293.82921511 170.50508055 287.0603648 170.45720994 280.2915231 C170.43213279 276.71291638 170.41029802 273.13436086 170.39665604 269.55569077 C170.38123729 265.54466277 170.35057368 261.53388144 170.31884766 257.52294922 C170.31668747 256.35768707 170.31452728 255.19242493 170.31230164 253.99185181 C170.18918701 241.71637414 169.26784289 230.72765418 163 220 C162.7009375 219.33226562 162.401875 218.66453125 162.09375 217.9765625 C159.22918451 212.79988344 154.78519677 210.65582143 149.5625 208.3125 C148.57926758 207.85133789 148.57926758 207.85133789 147.57617188 207.38085938 C135.75359368 201.96168361 124.91048429 203.43708111 113.0546875 207.7109375 C109.95642342 208.79253938 109.95642342 208.79253938 108 211 C106.34561387 211.69658363 104.67745682 212.36096883 103 213 C99.90766472 214.17995846 99.90766472 214.17995846 98.12890625 216.8125 C96.80079157 219.38600942 95.14726743 221.05694538 93.125 223.125 C83.06604288 234.31376752 82.70934406 249.36679412 82.68115234 263.7668457 C82.67110672 264.96843323 82.6610611 266.17002075 82.65071106 267.40802002 C82.62537761 270.65715495 82.60836699 273.90619661 82.59528303 277.15539956 C82.57949753 280.56801915 82.55275782 283.98055389 82.5272522 287.39311218 C82.48073417 293.83481137 82.44386087 300.27652702 82.41057932 306.71830672 C82.36838691 314.78296663 82.31309453 322.8475304 82.2578125 330.91210938 C82.15941525 345.27468637 82.08060598 359.6372877 82 374 C54.94 374 27.88 374 0 374 C0 250.58 0 127.16 0 0 Z " fill="#565656" transform="translate(1094,62)"/>
<path d="M0 0 C0.92490234 0.07025391 1.84980469 0.14050781 2.80273438 0.21289062 C11.37076723 0.96341908 19.24522015 2.79222511 26.75 7.125 C27.66652344 7.64835938 28.58304688 8.17171875 29.52734375 8.7109375 C30.78224609 9.44183594 30.78224609 9.44183594 32.0625 10.1875 C32.72378906 10.55101562 33.38507813 10.91453125 34.06640625 11.2890625 C41.87612786 15.5870301 47.38986668 20.34244351 53.0625 27.1875 C55.0425 29.4975 57.0225 31.8075 59.0625 34.1875 C59.3925 24.6175 59.7225 15.0475 60.0625 5.1875 C87.1225 5.1875 114.1825 5.1875 142.0625 5.1875 C142.0625 79.1075 142.0625 153.0275 142.0625 229.1875 C115.3325 229.1875 88.6025 229.1875 61.0625 229.1875 C60.7325 218.9575 60.4025 208.7275 60.0625 198.1875 C58.4125 200.1675 56.7625 202.1475 55.0625 204.1875 C54.4025 204.1875 53.7425 204.1875 53.0625 204.1875 C52.98 204.765 52.8975 205.3425 52.8125 205.9375 C51.84452213 208.8414336 50.37555716 210.22490604 48.0625 212.1875 C47.4025 212.1875 46.7425 212.1875 46.0625 212.1875 C46.0625 212.8475 46.0625 213.5075 46.0625 214.1875 C43.83203125 215.80859375 43.83203125 215.80859375 40.875 217.625 C39.91207031 218.22183594 38.94914062 218.81867188 37.95703125 219.43359375 C36.52423828 220.30177734 36.52423828 220.30177734 35.0625 221.1875 C33.70705078 222.04021484 33.70705078 222.04021484 32.32421875 222.91015625 C30.0625 224.1875 30.0625 224.1875 28.0625 224.1875 C28.0625 224.8475 28.0625 225.5075 28.0625 226.1875 C7.66833943 237.97603212 -19.8210874 240.06107692 -42.6875 234.5 C-51.97693798 231.811952 -60.67820793 228.20785401 -68.9375 223.1875 C-70.24792318 222.43387718 -71.56041016 221.68383089 -72.875 220.9375 C-73.885625 220.36 -74.89625 219.7825 -75.9375 219.1875 C-75.9375 218.5275 -75.9375 217.8675 -75.9375 217.1875 C-77.2678125 216.81625 -77.2678125 216.81625 -78.625 216.4375 C-84.67845919 214.15317578 -87.91997057 210.10897355 -91.9375 205.1875 C-92.7625 204.383125 -93.5875 203.57875 -94.4375 202.75 C-101.9375 195.0625 -101.9375 195.0625 -101.9375 191.1875 C-102.5975 191.1875 -103.2575 191.1875 -103.9375 191.1875 C-105.35547496 189.21257096 -106.62856944 187.26744543 -107.875 185.1875 C-108.2369043 184.59026123 -108.59880859 183.99302246 -108.97167969 183.37768555 C-111.14716802 179.71534911 -112.98341577 176.16158343 -114.30078125 172.1171875 C-115.03512911 169.89161793 -115.95315143 167.77951199 -116.875 165.625 C-128.33312028 136.82604634 -129.45298987 98.51420192 -117.1875 69.75 C-116.45257587 68.22182444 -115.69960593 66.70230315 -114.9375 65.1875 C-114.30651126 63.89100453 -113.67638683 62.59408823 -113.046875 61.296875 C-112.34491717 59.86401095 -111.64178049 58.43172385 -110.9375 57 C-110.60524414 56.32203369 -110.27298828 55.64406738 -109.93066406 54.94555664 C-106.95145237 48.98054209 -103.66826977 43.91826977 -98.9375 39.1875 C-98.628125 38.548125 -98.31875 37.90875 -98 37.25 C-96.49885997 34.33602229 -94.30005562 32.434809 -91.9375 30.1875 C-91.380625 29.589375 -90.82375 28.99125 -90.25 28.375 C-88.9375 27.1875 -88.9375 27.1875 -86.9375 27.1875 C-86.67710938 26.59066406 -86.41671875 25.99382812 -86.1484375 25.37890625 C-84.85785504 23.04336831 -83.61524218 21.80573868 -81.5625 20.125 C-80.93601562 19.61195313 -80.30953125 19.09890625 -79.6640625 18.5703125 C-79.09429688 18.11398438 -78.52453125 17.65765625 -77.9375 17.1875 C-77.2775 16.630625 -76.6175 16.07375 -75.9375 15.5 C-73.11113563 13.64519838 -70.04863409 12.49745119 -66.9375 11.1875 C-65.26330562 10.2001546 -63.59698148 9.19937895 -61.9375 8.1875 C-52.31125093 2.78899545 -42.82633073 0.75407142 -31.875 0 C-30.85083984 -0.08185547 -29.82667969 -0.16371094 -28.77148438 -0.24804688 C-19.06615634 -0.98602389 -9.69216028 -0.8542015 0 0 Z M-18.9375 71.1875 C-19.9275 71.8475 -20.9175 72.5075 -21.9375 73.1875 C-21.9375 73.8475 -21.9375 74.5075 -21.9375 75.1875 C-22.494375 75.249375 -23.05125 75.31125 -23.625 75.375 C-30.01403155 77.61979487 -33.4852118 84.74389194 -36.9375 90.1875 C-37.7728125 91.425 -37.7728125 91.425 -38.625 92.6875 C-45.4140857 105.61909181 -44.97356893 121.21505372 -41.9375 135.1875 C-40.90593586 138.40522301 -39.60863861 141.25587801 -37.9375 144.1875 C-37.29361328 145.33605469 -37.29361328 145.33605469 -36.63671875 146.5078125 C-34.92103605 149.43989413 -34.92103605 149.43989413 -32.9375 152.1875 C-32.2775 152.1875 -31.6175 152.1875 -30.9375 152.1875 C-30.751875 152.93 -30.56625 153.6725 -30.375 154.4375 C-28.69621107 157.64909621 -26.88754017 158.60452956 -23.71484375 160.2265625 C-21.9375 161.1875 -21.9375 161.1875 -19.6875 163.125 C-13.32855916 167.89420563 -5.92524011 170.99634041 2.0625 171.1875 C3.13628906 171.22617187 4.21007813 171.26484375 5.31640625 171.3046875 C21.60030987 171.6208798 33.92562135 167.39988985 46.0625 156.1875 C55.81552861 145.36773389 59.64484977 132.8528349 59.5625 118.5 C59.55391968 116.77124634 59.55391968 116.77124634 59.54516602 115.00756836 C59.35924219 106.13393145 58.2646601 99.12134935 54.0625 91.1875 C53.56621094 90.21039063 53.06992188 89.23328125 52.55859375 88.2265625 C48.39454046 80.90184225 42.89341931 76.0167559 36.0625 71.1875 C35.33160156 70.66027344 34.60070313 70.13304687 33.84765625 69.58984375 C19.54392386 60.45356776 -5.17602913 61.89403915 -18.9375 71.1875 Z " fill="#565656" transform="translate(1513.9375,206.8125)"/>
<path d="M0 0 C2.94846304 2.38432987 5.78592669 4.84468113 8.28808594 7.69726562 C8.28808594 8.35726562 8.28808594 9.01726562 8.28808594 9.69726562 C8.94808594 9.69726562 9.60808594 9.69726562 10.28808594 9.69726562 C11.27808594 11.01726562 12.26808594 12.33726562 13.28808594 13.69726562 C13.61808594 5.44726562 13.94808594 -2.80273438 14.28808594 -11.30273438 C37.71808594 -11.30273438 61.14808594 -11.30273438 85.28808594 -11.30273438 C85.28808594 53.37726563 85.28808594 118.05726563 85.28808594 184.69726562 C62.18808594 184.69726562 39.08808594 184.69726562 15.28808594 184.69726562 C14.95808594 175.45726562 14.62808594 166.21726562 14.28808594 156.69726562 C11.64808594 159.99726563 9.00808594 163.29726563 6.28808594 166.69726562 C0.34401817 172.90748568 -6.15871508 177.64487869 -13.71191406 181.69726562 C-14.6490625 182.22320312 -15.58621094 182.74914062 -16.55175781 183.29101562 C-17.53273438 183.81695312 -18.51371094 184.34289062 -19.52441406 184.88476562 C-20.39710938 185.35269531 -21.26980469 185.820625 -22.16894531 186.30273438 C-32.04275969 190.18911997 -41.78054275 191.18905066 -52.33300781 191.08837891 C-54.34280616 191.07221825 -56.35061147 191.08836989 -58.36035156 191.10742188 C-66.29901603 191.08388828 -73.20753273 190.30044905 -80.71191406 187.69726562 C-81.39721191 187.46765137 -82.08250977 187.23803711 -82.78857422 187.00146484 C-97.63972481 181.79302261 -108.65069378 173.62662531 -119.71191406 162.69726562 C-120.45441406 161.97925781 -121.19691406 161.26125 -121.96191406 160.52148438 C-140.55183543 141.21944908 -146.88198479 114.66863049 -146.95214844 88.74316406 C-146.96180166 86.59725372 -146.99288885 84.45232541 -147.02441406 82.30664062 C-147.24408989 53.61339227 -136.28540949 28.43273048 -116.33691406 8.00976562 C-111.46537345 3.25198351 -106.50756944 -0.73750209 -100.71191406 -4.30273438 C-99.7721875 -4.89828125 -98.83246094 -5.49382812 -97.86425781 -6.10742188 C-67.98362077 -23.71093245 -27.32888434 -20.79676652 0 0 Z " fill="#FEFEFE" transform="translate(2313.7119140625,198.302734375)"/>
<path d="M0 0 C27.39 0 54.78 0 83 0 C89.43299861 16.08249654 89.43299861 16.08249654 91.29736328 22.69848633 C92.02503914 25.08201665 92.91104366 27.33583403 93.8671875 29.63671875 C96.3291165 35.7130287 98.33858804 41.90969909 100.35546875 48.14453125 C102.0974736 53.46513431 104.00939074 58.66611123 106.15039062 63.83984375 C107.32621522 66.82941156 108.11782751 69.91239627 109 73 C109.63138945 74.60990644 110.27857213 76.21366747 110.9375 77.8125 C112.30074127 81.1354006 113.46121073 84.41915786 114.4375 87.875 C115.85265188 92.80096584 117.79890861 97.41964405 119.80859375 102.12890625 C121.42518005 106.02461422 122.72150782 109.9837942 124 114 C124.66424585 116.00080531 125.3310619 118.00075858 126 120 C127.85869565 125.5621118 127.85869565 125.5621118 128.7109375 128.203125 C131.20720142 135.89749143 134.13296347 143.43807517 137 151 C137.43699219 149.74509766 137.43699219 149.74509766 137.8828125 148.46484375 C140.36081141 141.42826195 142.96311563 134.46654667 145.76367188 127.55200195 C147.433873 123.42748536 149.04612995 119.28527416 150.625 115.125 C151.99589507 111.53622373 153.4103593 107.99720954 155 104.5 C157.60234881 98.77274238 159.7734668 92.88102539 162 87 C164.82428702 79.56535037 167.72703033 72.17965197 170.80859375 64.84765625 C173.14921744 59.25318192 175.41125651 53.63101049 177.5 47.9375 C178.48571774 45.27920801 179.56901195 42.70215612 180.75 40.125 C184.73920727 31.29066358 188.04318829 22.14131535 191.4921875 13.0859375 C192.14574219 11.37277344 192.14574219 11.37277344 192.8125 9.625 C193.19019531 8.62726563 193.56789063 7.62953125 193.95703125 6.6015625 C194.85867367 4.35252185 195.91638172 2.16723657 197 0 C223.73 0 250.46 0 278 0 C277.17251554 4.13742231 276.67104867 5.92101933 274.625 9.3125 C273.02738659 12.08442754 271.62762244 14.73321609 270.5625 17.75 C269.38460798 21.07770588 267.99817043 24.24054942 266.5 27.4375 C262.86903315 35.19084274 259.45643112 43.03750748 256.046875 50.89038086 C253.5339574 56.64390012 250.9124503 62.2914745 248.00024414 67.85473633 C247.04599309 69.90135678 246.46275409 71.79573862 246 74 C245.34 74 244.68 74 244 74 C243.82984375 74.54527344 243.6596875 75.09054687 243.484375 75.65234375 C241.92206711 80.51378055 240.10893406 85.1399056 237.984375 89.78125 C236.49748829 93.13264543 235.25272759 96.55499913 234 100 C233.34 100 232.68 100 232 100 C231.8453125 100.99 231.8453125 100.99 231.6875 102 C230.80786436 105.83841009 229.43030104 109.33096691 228 113 C227.34 113 226.68 113 226 113 C225.773125 114.11375 225.54625 115.2275 225.3125 116.375 C224.21543694 120.82639255 222.28842265 124.6177214 220.171875 128.6640625 C218.81579207 131.36718781 217.86809714 134.10634288 217 137 C216.67 137.66 216.34 138.32 216 139 C215.34 139 214.68 139 214 139 C213.938125 139.78375 213.87625 140.5675 213.8125 141.375 C213.09290846 144.58548533 212.26605232 146.63393552 210.765625 149.5 C207.90482673 155.10689834 205.40750809 160.83746944 202.9375 166.625 C200.13288791 173.1877064 197.24600561 179.64323901 194 186 C191.99786004 190.43952773 190.27203971 194.93949011 188.5625 199.5 C186.36904246 205.24382876 183.8079687 210.1548282 180.515625 215.3359375 C178.96808301 218.0561015 177.92432864 220.679107 176.875 223.625 C174.38036416 230.28492176 171.38962 236.63927057 168.30493164 243.04370117 C166.18192803 247.46496157 164.15648782 251.89019022 162.3125 256.4375 C160.29519542 261.41167567 157.96313073 266.16610639 155.53125 270.94921875 C152.20563429 277.57499902 149.14699719 284.3279475 146.20703125 291.1328125 C145.9020874 291.83760742 145.59714355 292.54240234 145.28295898 293.26855469 C144.69636654 294.62943653 144.11357288 295.99196495 143.53540039 297.35644531 C142.14250141 300.59513135 140.65645119 303.68517423 138.8828125 306.734375 C137.48357761 309.16126373 136.38603601 311.25186709 135.5 313.875 C134.16887768 317.61516435 132.61044524 321.21113268 130.9765625 324.828125 C130.08399081 326.81320443 129.2230232 328.80808153 128.375 330.8125 C127.32661915 333.24283742 126.18369273 335.63261455 125 338 C97.61 338 70.22 338 42 338 C44.03464165 331.89607505 46.493871 326.15390305 49.11303711 320.28637695 C49.935973 318.44092434 50.75242293 316.59269678 51.56835938 314.74414062 C52.09107422 313.56916016 52.61378906 312.39417969 53.15234375 311.18359375 C53.62663818 310.11681396 54.10093262 309.05003418 54.58959961 307.95092773 C55.91291918 305.18219593 57.40703872 302.61930062 59 300 C59.78884475 298.0359927 60.53639109 296.05507698 61.25 294.0625 C63.47713681 288.13672526 66.14706283 282.59016246 69.03125 276.9609375 C71.42018308 272.22976859 73.5833604 267.39852801 75.75 262.5625 C76.12672852 261.72195068 76.50345703 260.88140137 76.89160156 260.01538086 C78.50229365 256.4057177 80.09583768 252.79072441 81.640625 249.15234375 C82.69167794 246.71498822 83.78182467 244.35513897 85 242 C86.83013442 238.38862788 88.44774892 234.73951397 90 231 C90.4125 230.195625 90.825 229.39125 91.25 228.5625 C93.39909875 221.21974595 89.96980114 215.63357059 86.6171875 209.28125 C84.38727206 204.75678388 82.79173021 200.08272131 81.1484375 195.3203125 C79.01062105 189.13955066 76.65049392 183.17546924 73.625 177.375 C71.06338821 172.3853574 69.15412924 167.23830684 67.24194336 161.9765625 C65.72978007 157.84615731 64.07150755 153.85476235 62.1875 149.875 C60.47961322 146.2457406 59.32823424 143.04822229 59 139 C58.34 139 57.68 139 57 139 C56.5875 137.88625 56.175 136.7725 55.75 135.625 C53.90718869 130.71936803 51.97095796 125.8554393 50 121 C49.7417041 120.36320312 49.4834082 119.72640625 49.21728516 119.0703125 C44.97757399 108.61312608 44.97757399 108.61312608 40.375 98.3125 C38.49026583 94.2597056 36.9623628 90.16109442 35.5 85.9375 C33.71457248 80.80018497 31.64439315 76.04515144 29.12109375 71.234375 C27.76449017 68.53062152 26.75591441 65.77267678 25.74609375 62.92578125 C24.95633986 60.88730655 24.01236663 58.99936748 23 57.0625 C21.19416378 53.56027218 19.96700471 50.0396562 18.78125 46.2890625 C17.71114508 43.15365508 16.34252717 40.18588956 14.96484375 37.17578125 C14.07920269 35.17860687 13.30311262 33.17946779 12.5625 31.125 C11.40055134 27.94063258 10.05310097 24.88669866 8.625 21.8125 C5.34659428 14.7092876 2.4741793 7.4225379 0 0 Z " fill="#565656" transform="translate(505,212)"/>
<path d="M0 0 C83.16 0 166.32 0 252 0 C252 23.1 252 46.2 252 70 C223.62 70 195.24 70 166 70 C166 165.37 166 260.74 166 359 C139.27 359 112.54 359 85 359 C85 263.63 85 168.26 85 70 C56.95 70 28.9 70 0 70 C0 46.9 0 23.8 0 0 Z " fill="#565656" transform="translate(795,77)"/>
<path d="M0 0 C83.16 0 166.32 0 252 0 C252 23.1 252 46.2 252 70 C223.62 70 195.24 70 166 70 C166 165.37 166 260.74 166 359 C139.27 359 112.54 359 85 359 C85 263.63 85 168.26 85 70 C56.95 70 28.9 70 0 70 C0 46.9 0 23.8 0 0 Z " fill="#565656" transform="translate(9,77)"/>
<path d="M0 0 C26.73 0 53.46 0 81 0 C81 30.03 81 60.06 81 91 C97.5 91 114 91 131 91 C131 113.77 131 136.54 131 160 C114.5 160 98 160 81 160 C81.12019667 172.35070093 81.12019667 172.35070093 81.2578125 184.70117188 C81.31788058 189.74597348 81.37600508 194.79074007 81.421875 199.83569336 C81.45902851 203.90772786 81.50546536 207.9795646 81.55806351 212.05142784 C81.57644916 213.59693585 81.59161402 215.142486 81.60334396 216.68805885 C81.27322713 233.67816588 81.27322713 233.67816588 88.44140625 248.47265625 C91.88664027 251.84881289 95.1015346 252.13109904 99.75 252.375 C107.19472491 252.23076539 112.78657631 248.78444131 119 245 C129 263.21917808 129 263.21917808 129 269 C129.66 269 130.32 269 131 269 C133.08097971 273.08763871 135.10165794 277.17129635 136.9375 281.375 C138.7616693 285.54246979 140.77516574 289.59363514 142.8515625 293.640625 C144.65235007 297.34020218 146.10635618 300.97860282 147 305 C136.93626628 310.32941483 127.0298062 314.97163152 116 318 C115.32710937 318.19609863 114.65421875 318.39219727 113.9609375 318.59423828 C87.38236761 326.09091517 56.5694797 324.71768222 32 312 C32 311.34 32 310.68 32 310 C31.030625 309.731875 30.06125 309.46375 29.0625 309.1875 C28.051875 308.795625 27.04125 308.40375 26 308 C25.505 306.515 25.505 306.515 25 305 C24.01 305 23.02 305 22 305 C20.29115995 303.37660195 18.62553283 301.70680947 17 300 C16.01 299.34 15.02 298.68 14 298 C13.505 296.515 13.505 296.515 13 295 C12.34 294.67 11.68 294.34 11 294 C11 292.68 11 291.36 11 290 C10.34 290 9.68 290 9 290 C0.45963062 273.16427184 -0.56849125 258.3372931 -0.390625 239.78515625 C-0.38314927 237.47489414 -0.37746265 235.16462562 -0.37347412 232.85435486 C-0.35832266 226.82258077 -0.31913282 220.79120214 -0.2746582 214.75958252 C-0.23347743 208.58521878 -0.21541472 202.4107901 -0.1953125 196.23632812 C-0.15262704 184.15735185 -0.08236462 172.07877094 0 160 C-12.87 160 -25.74 160 -39 160 C-39 137.23 -39 114.46 -39 91 C-26.13 91 -13.26 91 0 91 C0 60.97 0 30.94 0 0 Z " fill="#565656" transform="translate(1733,121)"/>
<path d="M0 0 C0.9796875 0.03996094 1.959375 0.07992187 2.96875 0.12109375 C14.31946983 0.65927443 25.61174837 5.74116558 35 12 C34.40832525 15.69468013 33.36678634 18.5708841 31.625 21.875 C29.86294932 25.23694946 28.30165093 28.62457273 26.82568359 32.12158203 C25.04342782 36.17618757 22.97117922 40.09415206 20.9609375 44.0390625 C18.80479583 48.30196855 16.84197347 52.59185837 15 57 C13.14304271 61.34937525 11.29274976 65.61597345 8.875 69.6875 C7.13301473 72.76500732 5.99014383 75.61700857 5 79 C-0.06041619 78.33879579 -2.42650937 76.21085443 -6.1328125 72.88671875 C-14.82960197 67.16389952 -23.55934457 66.38757734 -33.75 66.5625 C-34.92949219 66.55541016 -36.10898437 66.54832031 -37.32421875 66.54101562 C-43.73836126 66.58791318 -48.28713248 67.12065367 -54 70 C-55.32 70 -56.64 70 -58 70 C-58 70.66 -58 71.32 -58 72 C-59.97290587 74.34869747 -61.00306862 75.00102287 -64 76 C-64.66 76.99 -65.32 77.98 -66 79 C-66.99 79 -67.98 79 -69 79 C-69.495 80.98 -69.495 80.98 -70 83 C-70.66 83 -71.32 83 -72 83 C-72.11601562 83.56589844 -72.23203125 84.13179688 -72.3515625 84.71484375 C-73.06720321 87.2368306 -74.12357551 89.26063737 -75.375 91.5625 C-81.03704617 102.65749221 -82.13758042 114.00909299 -82.20532227 126.25952148 C-82.21522186 127.37245071 -82.22512146 128.48537994 -82.23532104 129.6320343 C-82.26680095 133.29503279 -82.29163994 136.95804423 -82.31640625 140.62109375 C-82.33698744 143.16700062 -82.35798422 145.71290416 -82.37937927 148.25880432 C-82.42885373 154.26509786 -82.47415 160.27140873 -82.51740164 166.27774912 C-82.57176458 173.79132039 -82.63255455 181.30483795 -82.69335938 188.81835938 C-82.80172372 202.21219819 -82.90040912 215.6060867 -83 229 C-110.06 229 -137.12 229 -165 229 C-165 155.08 -165 81.16 -165 5 C-137.94 5 -110.88 5 -83 5 C-82.505 19.355 -82.505 19.355 -82 34 C-81.34 32.68 -80.68 31.36 -80 30 C-79.34 30 -78.68 30 -78 30 C-77.72929687 29.42636719 -77.45859375 28.85273438 -77.1796875 28.26171875 C-75.97823397 25.95826975 -74.64824789 23.91584489 -73.125 21.8125 C-72.63257813 21.11769531 -72.14015625 20.42289063 -71.6328125 19.70703125 C-69.74693548 17.73543255 -68.58068416 17.6208759 -66 17 C-65.505 15.515 -65.505 15.515 -65 14 C-63.3523962 13.28752268 -61.68236471 12.62599617 -60 12 C-58.65879312 11.01058509 -57.32617377 10.00947556 -56 9 C-54.62276974 8.13626859 -53.22587195 7.30322778 -51.8125 6.5 C-51.11769531 6.0978125 -50.42289062 5.695625 -49.70703125 5.28125 C-42.4487768 1.8458857 -35.41008138 0.39646362 -27.4375 -0.25 C-26.47803467 -0.3322583 -25.51856934 -0.4145166 -24.5300293 -0.49926758 C-16.21596252 -1.13347942 -8.29000209 -0.81219615 0 0 Z " fill="#565656" transform="translate(467,207)"/>
<path d="M0 0 C23.43 0 46.86 0 71 0 C71 65.01 71 130.02 71 197 C47.57 197 24.14 197 0 197 C0 131.99 0 66.98 0 0 Z " fill="#FEFEFE" transform="translate(2453,187)"/>
<path d="M0 0 C0.89009766 -0.01160156 1.78019531 -0.02320313 2.69726562 -0.03515625 C14.28503765 0.01563019 24.10774836 4.41770102 32.640625 12.29296875 C43.31514686 23.91891538 46.44733119 37.75862206 45.90625 53.2265625 C45.23213017 63.68986534 41.17471512 73.24816418 34.5625 81.375 C33.9025 81.375 33.2425 81.375 32.5625 81.375 C32.31113281 81.973125 32.05976563 82.57125 31.80078125 83.1875 C28.03455315 89.84077362 19.19182175 92.73310915 12.23046875 94.68359375 C-2.10670411 97.38612793 -14.73774248 95.44054561 -26.89453125 87.26171875 C-37.03809635 79.73584787 -43.22302921 69.80757446 -45.4375 57.375 C-45.67138207 53.96032178 -45.66830244 50.5469648 -45.6875 47.125 C-45.708125 46.22136719 -45.72875 45.31773437 -45.75 44.38671875 C-45.82193098 31.88871126 -40.62106615 21.66112403 -32.125 12.5625 C-22.88025553 3.9188712 -12.48806512 -0.16206573 0 0 Z " fill="#2257A6" transform="translate(2282.4375,237.625)"/>
<path d="M0 0 C3.48071029 2.72009198 6.18192756 5.49276045 8.69921875 9.109375 C9.1478125 9.73585938 9.59640625 10.36234375 10.05859375 11.0078125 C16.84644142 21.10972697 18.35522643 31.52376377 16.04296875 43.51171875 C11.9988512 58.17164486 4.24993333 66.96171454 -8.78125 74.5546875 C-18.37164956 78.91534612 -32.50885184 79.36361748 -42.453125 75.8515625 C-54.93600012 70.02351006 -63.96356156 60.31245408 -68.67236328 47.39086914 C-71.40193437 37.48106268 -70.72734637 23.96077448 -66.109375 14.81640625 C-59.30618674 4.63366442 -50.04117747 -4.87635032 -38.01171875 -8.421875 C-23.65772362 -10.90383381 -11.8836315 -8.33832274 0 0 Z " fill="#FDFDFE" transform="translate(2103.30078125,311.890625)"/>
<path d="M0 0 C8.92085973 7.43404977 14.81537951 15.66153466 15.96484375 27.33984375 C16.69708426 40.53490848 14.67257112 49.28986456 6.14453125 59.61328125 C-1.07215819 67.38802751 -9.93660712 72.80674705 -20.75390625 73.30859375 C-33.65530767 73.48694723 -42.93055216 72.1082939 -52.703125 63.0078125 C-61.41369551 54.24559829 -66.10770113 45.16041527 -66.078125 32.6328125 C-66.05718449 25.91524234 -65.33612231 20.79937639 -61.703125 15.0078125 C-61.30609375 14.30269531 -60.9090625 13.59757812 -60.5 12.87109375 C-58.03909394 8.65796028 -55.3470302 5.29621476 -51.703125 2.0078125 C-50.775 1.1621875 -49.846875 0.3165625 -48.890625 -0.5546875 C-34.84042025 -12.03384963 -14.13632472 -10.4183896 0 0 Z " fill="#FDFDFE" transform="translate(2514.703125,72.9921875)"/>
</svg>
