<?xml version="1.0" encoding="UTF-8"?>
<svg version="1.1" xmlns="http://www.w3.org/2000/svg" width="2604" height="677">
<path d="M0 0 C0.94734361 -0.00235223 1.89468722 -0.00470446 2.87073821 -0.00712797 C6.07540702 -0.01383531 9.28003544 -0.01335922 12.48471069 -0.01294994 C14.79347388 -0.0162475 17.10223648 -0.01997283 19.41099834 -0.02409142 C25.77926731 -0.03413204 32.14752686 -0.03783153 38.51580262 -0.04048073 C44.67121498 -0.04349749 50.82662085 -0.05212466 56.98202846 -0.06002467 C73.47931363 -0.08088086 89.97660061 -0.0913411 106.47389589 -0.10015428 C114.27752851 -0.1043595 122.08116035 -0.10958169 129.88479232 -0.11483881 C156.59407629 -0.13273088 183.30336047 -0.14772679 210.01264954 -0.155159 C211.6898792 -0.15563376 213.36710886 -0.15610964 215.04433852 -0.15658666 C215.876101 -0.15682303 216.70786347 -0.15705941 217.56483087 -0.15730295 C221.77900956 -0.15850416 225.99318825 -0.1597196 230.20736694 -0.16094494 C231.04368669 -0.16118509 231.88000643 -0.16142524 232.74166919 -0.16167267 C259.85426852 -0.16956476 286.96682408 -0.19299377 314.07940429 -0.22550088 C342.73953369 -0.25980075 371.39963749 -0.27951034 400.05978775 -0.28280324 C403.20629121 -0.28322078 406.35279465 -0.28370034 409.4992981 -0.28422642 C410.27406436 -0.28434961 411.04883063 -0.2844728 411.84707466 -0.28459973 C424.31475244 -0.28693168 436.78237942 -0.30259152 449.25003909 -0.32306826 C461.78388041 -0.34332698 474.3176607 -0.34880337 486.85151535 -0.33929763 C493.64165754 -0.3345415 500.43162493 -0.33669455 507.22174644 -0.35605907 C513.43848409 -0.3736354 519.65493575 -0.37273768 525.87167621 -0.35716178 C528.12008846 -0.35477732 530.36852023 -0.35915251 532.61690259 -0.37099043 C554.48219774 -0.47897714 554.48219774 -0.47897714 562.90023804 4.13422108 C564.27386238 4.88157875 564.27386238 4.88157875 565.6752367 5.64403456 C566.77661236 6.38167689 566.77661236 6.38167689 567.90023804 7.13422108 C567.90023804 7.79422108 567.90023804 8.45422108 567.90023804 9.13422108 C568.51898804 9.38172108 569.13773804 9.62922108 569.77523804 9.88422108 C572.25092491 11.34050747 572.85148806 12.51234614 573.90023804 15.13422108 C574.56023804 15.13422108 575.22023804 15.13422108 575.90023804 15.13422108 C576.6985526 16.50537204 577.48854414 17.88136992 578.27523804 19.25922108 C578.71609741 20.0249242 579.15695679 20.79062733 579.61117554 21.57953358 C582.13979778 26.59080311 583.15038627 30.94964923 583.16030025 36.55494595 C583.16736585 37.83441463 583.17443144 39.11388332 583.18171114 40.43212378 C583.17945997 41.84467418 583.17701349 43.25722429 583.1743927 44.66977406 C583.17884657 46.17607971 583.1841611 47.68238303 583.19026142 49.18868291 C583.20443429 53.32495356 583.20610485 57.46114903 583.20566452 61.59744048 C583.20731337 66.05978971 583.22038124 70.52210803 583.2318573 74.9844408 C583.25470188 84.74077799 583.26262744 94.49709342 583.26768374 104.25345373 C583.27094161 110.34725137 583.27746467 116.4410427 583.28468513 122.53483677 C583.30425093 139.4121178 583.32065507 156.28939296 583.32356167 173.16668606 C583.32374924 174.24660231 583.32393681 175.32651855 583.32413006 176.43915953 C583.32449631 178.6283505 583.32486001 180.81754146 583.32522117 183.00673242 C583.32540398 184.0934277 583.3255868 185.18012298 583.32577515 186.29974842 C583.32604597 187.93178483 583.32604597 187.93178483 583.32632226 189.59679167 C583.32986312 207.22257595 583.35688006 224.848238 583.39427304 242.47397991 C583.43237074 260.57703301 583.45171926 278.68002548 583.45202118 296.78311956 C583.45260545 306.94452223 583.46107751 317.1057791 583.49001884 327.2671442 C583.51455235 335.92062976 583.52180235 344.57391637 583.50677132 353.22742732 C583.4996103 357.64013189 583.50042479 362.05244375 583.52318192 366.4651041 C583.54384575 370.51075036 583.5411032 374.55570384 583.52030707 378.6013432 C583.51682624 380.05897726 583.52166223 381.51666206 583.53601151 382.97422965 C583.65052195 395.41531516 580.85424192 404.91160918 573.23226929 414.80609608 C571.90023804 416.13422108 571.90023804 416.13422108 569.90023804 416.13422108 C569.90023804 416.79422108 569.90023804 417.45422108 569.90023804 418.13422108 C569.24023804 418.13422108 568.58023804 418.13422108 567.90023804 418.13422108 C567.90023804 418.79422108 567.90023804 419.45422108 567.90023804 420.13422108 C566.74523804 420.75297108 565.59023804 421.37172108 564.40023804 422.00922108 C563.75055054 422.35726795 563.10086304 422.70531483 562.43148804 423.06390858 C555.6983417 425.91094885 549.3926609 426.42487449 542.18523693 426.38869667 C541.2321241 426.39190315 540.27901127 426.39510963 539.29701623 426.39841327 C536.10278032 426.4067156 532.90873179 426.40078808 529.7144928 426.39491749 C527.40141372 426.39793806 525.08833563 426.40182707 522.77525932 426.40651006 C516.41827079 426.41681094 510.06133853 426.41460289 503.70434535 426.41032946 C497.55279566 426.40714499 491.40125533 426.41527014 485.24971029 426.42208972 C471.11428358 426.4373294 456.97887478 426.4390348 442.84344157 426.43656669 C431.92743818 426.4347339 421.01144066 426.43649334 410.095438 426.44079113 C408.5270362 426.44139353 406.9586344 426.44199473 405.3902326 426.44259473 C403.02678257 426.44350199 400.66333255 426.44441066 398.29988254 426.44532708 C376.32564462 426.45375666 354.35140891 426.45809229 332.37716961 426.45392036 C331.54879053 426.45376399 330.72041146 426.45360761 329.86692999 426.4534465 C325.66840004 426.45264072 321.46987009 426.45179495 317.27134015 426.4509332 C316.43750289 426.45076211 315.60366563 426.45059102 314.74456057 426.45041475 C313.05833897 426.45006809 311.37211737 426.44971956 309.68589577 426.44936916 C283.44914305 426.44401213 257.21242394 426.45194183 230.97567749 426.47040272 C201.49622617 426.49112098 172.01679566 426.50184574 142.53733665 426.49782723 C139.39371956 426.49743189 136.25010246 426.49707034 133.10648537 426.49672985 C132.3324516 426.49663912 131.55841784 426.49654839 130.76092851 426.49645491 C119.07849667 426.49528916 107.39608587 426.50193551 95.71365929 426.51254177 C82.42622256 426.52459291 69.13883215 426.52615374 55.85139474 426.5137516 C49.07137566 426.50770645 42.29145255 426.50678932 35.51143837 426.51875401 C29.30418861 426.52958067 23.09710534 426.52654761 16.88986347 426.51249232 C14.64496893 426.50983653 12.40006148 426.51223948 10.15517958 426.52022818 C-16.93473077 426.60993547 -16.93473077 426.60993547 -25.09976196 420.13422108 C-25.09976196 419.47422108 -25.09976196 418.81422108 -25.09976196 418.13422108 C-25.96601196 417.79390858 -25.96601196 417.79390858 -26.84976196 417.44672108 C-29.69716005 415.78573886 -31.22043389 413.81897547 -33.09976196 411.13422108 C-33.09976196 410.47422108 -33.09976196 409.81422108 -33.09976196 409.13422108 C-33.75976196 409.13422108 -34.41976196 409.13422108 -35.09976196 409.13422108 C-39.82941861 399.93128593 -40.81821722 392.00917435 -40.72795105 381.78102589 C-40.73300566 380.25914845 -40.74024151 378.73727698 -40.74944919 377.21541899 C-40.76826809 373.06392435 -40.75619697 368.91302385 -40.73872626 364.76154482 C-40.72529985 360.27275838 -40.74080802 355.78405588 -40.75254822 351.2952776 C-40.77088861 342.51467035 -40.76243719 333.73428624 -40.74445999 324.95368604 C-40.7304141 317.81682883 -40.72654547 310.68003205 -40.72990227 303.54316235 C-40.73037971 302.52605379 -40.73085715 301.50894524 -40.73134906 300.46101522 C-40.73237542 298.3945892 -40.73343078 296.32816319 -40.73451483 294.26173719 C-40.74307426 276.00670354 -40.72643 257.7517774 -40.69668579 239.49676991 C-40.66783751 221.79132035 -40.66077187 204.08602559 -40.67617798 186.38055897 C-40.69294384 167.08604915 -40.69697139 147.79161275 -40.67946762 128.49710101 C-40.67762328 126.43934485 -40.67578855 124.38158869 -40.67396355 122.32383251 C-40.67305146 121.31144619 -40.67213937 120.29905988 -40.67119964 119.25599519 C-40.66559763 112.12768686 -40.66889818 104.99941443 -40.6755085 97.87110806 C-40.68324447 89.18437503 -40.67647915 80.4977943 -40.65133346 71.81109194 C-40.63884606 67.38055958 -40.63268278 62.95026424 -40.64387512 58.51972294 C-40.65393313 54.46157684 -40.64542494 50.40390294 -40.62229394 46.34581419 C-40.61714482 44.88035071 -40.61867816 43.41484475 -40.62768859 41.94939993 C-40.7065742 27.95176447 -36.8670675 19.27250653 -27.41226196 9.13422108 C-25.09976196 7.13422108 -25.09976196 7.13422108 -22.09976196 7.13422108 C-22.09976196 6.47422108 -22.09976196 5.81422108 -22.09976196 5.13422108 C-20.49602887 4.48731185 -18.89175891 3.84173344 -17.28726196 3.19672108 C-16.39394165 2.83707264 -15.50062134 2.4774242 -14.58023071 2.10687733 C-9.59580686 0.15235522 -5.29488122 -0.00883633 0 0 Z " fill="#2157A6" transform="translate(2013.0997619628906,13.865778923034668)"/>
<path d="M0 0 C27.06 0 54.12 0 82 0 C82.33 58.74 82.66 117.48 83 178 C83.66 177.01 84.32 176.02 85 175 C85.66 175 86.32 175 87 175 C87 174.01 87 173.02 87 172 C89.375 169.3125 89.375 169.3125 92 167 C92.66 167 93.32 167 94 167 C94.226875 166.38125 94.45375 165.7625 94.6875 165.125 C96.37929835 162.38589791 97.99244161 161.94975528 101 161 C101 160.34 101 159.68 101 159 C101.886875 158.649375 102.77375 158.29875 103.6875 157.9375 C108.494827 155.89950539 112.98379749 153.28708231 117.5234375 150.71875 C125.21297026 146.91718324 132.47808708 145.40918129 141 144.75 C142.00603271 144.6677417 143.01206543 144.5854834 144.04858398 144.50073242 C152.81706787 143.86321452 161.26294826 144.20971391 170 145 C173.68215394 145.20958285 177.36446701 145.41603075 181.046875 145.62109375 C184.02194662 146.0028159 186.26857359 146.79632057 189 148 C190.03125 148.268125 191.0625 148.53625 192.125 148.8125 C198.27654146 150.51226803 204.23291838 153.33734138 209.69140625 156.6171875 C211.85072644 157.91058741 213.54463268 158.54530235 216 159 C216 159.66 216 160.32 216 161 C216.70125 161.226875 217.4025 161.45375 218.125 161.6875 C222.96710174 163.89802471 226.42648757 167.1835848 229.75 171.25 C231.70631884 174.02359938 231.70631884 174.02359938 234 175 C236.12837953 178.1925693 237.66592079 181.40824827 239 185 C239.66 185 240.32 185 241 185 C254.37103047 210.05190259 254.30807126 234.90800456 254.20278788 262.70180988 C254.19010278 266.6281646 254.18909626 270.55452395 254.18673706 274.480896 C254.18057364 281.88219611 254.16423406 289.28343563 254.14403808 296.68470931 C254.11728834 306.70996013 254.10666482 316.73522806 254.09503365 326.76050568 C254.0763484 342.50704898 254.03646907 358.25346455 254 374 C226.61 374 199.22 374 171 374 C170.95101563 364.77804687 170.90203125 355.55609375 170.8515625 346.0546875 C170.81615511 340.19400132 170.78026152 334.33332471 170.7421875 328.47265625 C170.68191475 319.18117505 170.62356263 309.88971171 170.578125 300.59814453 C170.54501441 293.82921511 170.50508055 287.0603648 170.45720994 280.2915231 C170.43213279 276.71291638 170.41029802 273.13436086 170.39665604 269.55569077 C170.38123729 265.54466277 170.35057368 261.53388144 170.31884766 257.52294922 C170.31668747 256.35768707 170.31452728 255.19242493 170.31230164 253.99185181 C170.18918701 241.71637414 169.26784289 230.72765418 163 220 C162.7009375 219.33226562 162.401875 218.66453125 162.09375 217.9765625 C159.22918451 212.79988344 154.78519677 210.65582143 149.5625 208.3125 C148.57926758 207.85133789 148.57926758 207.85133789 147.57617188 207.38085938 C135.75359368 201.96168361 124.91048429 203.43708111 113.0546875 207.7109375 C109.95642342 208.79253938 109.95642342 208.79253938 108 211 C106.34561387 211.69658363 104.67745682 212.36096883 103 213 C99.90766472 214.17995846 99.90766472 214.17995846 98.12890625 216.8125 C96.80079157 219.38600942 95.14726743 221.05694538 93.125 223.125 C83.06604288 234.31376752 82.70934406 249.36679412 82.68115234 263.7668457 C82.67110672 264.96843323 82.6610611 266.17002075 82.65071106 267.40802002 C82.62537761 270.65715495 82.60836699 273.90619661 82.59528303 277.15539956 C82.57949753 280.56801915 82.55275782 283.98055389 82.5272522 287.39311218 C82.48073417 293.83481137 82.44386087 300.27652702 82.41057932 306.71830672 C82.36838691 314.78296663 82.31309453 322.8475304 82.2578125 330.91210938 C82.15941525 345.27468637 82.08060598 359.6372877 82 374 C54.94 374 27.88 374 0 374 C0 250.58 0 127.16 0 0 Z " fill="#565656" transform="translate(1094,62)"/>
<path d="M0 0 C0.92490234 0.07025391 1.84980469 0.14050781 2.80273438 0.21289062 C11.37076723 0.96341908 19.24522015 2.79222511 26.75 7.125 C27.66652344 7.64835938 28.58304688 8.17171875 29.52734375 8.7109375 C30.78224609 9.44183594 30.78224609 9.44183594 32.0625 10.1875 C32.72378906 10.55101562 33.38507813 10.91453125 34.06640625 11.2890625 C41.87612786 15.5870301 47.38986668 20.34244351 53.0625 27.1875 C55.0425 29.4975 57.0225 31.8075 59.0625 34.1875 C59.3925 24.6175 59.7225 15.0475 60.0625 5.1875 C87.1225 5.1875 114.1825 5.1875 142.0625 5.1875 C142.0625 79.1075 142.0625 153.0275 142.0625 229.1875 C115.3325 229.1875 88.6025 229.1875 61.0625 229.1875 C60.7325 218.9575 60.4025 208.7275 60.0625 198.1875 C58.4125 200.1675 56.7625 202.1475 55.0625 204.1875 C54.4025 204.1875 53.7425 204.1875 53.0625 204.1875 C52.98 204.765 52.8975 205.3425 52.8125 205.9375 C51.84452213 208.8414336 50.37555716 210.22490604 48.0625 212.1875 C47.4025 212.1875 46.7425 212.1875 46.0625 212.1875 C46.0625 212.8475 46.0625 213.5075 46.0625 214.1875 C43.83203125 215.80859375 43.83203125 215.80859375 40.875 217.625 C39.91207031 218.22183594 38.94914062 218.81867188 37.95703125 219.43359375 C36.52423828 220.30177734 36.52423828 220.30177734 35.0625 221.1875 C33.70705078 222.04021484 33.70705078 222.04021484 32.32421875 222.91015625 C30.0625 224.1875 30.0625 224.1875 28.0625 224.1875 C28.0625 224.8475 28.0625 225.5075 28.0625 226.1875 C7.66833943 237.97603212 -19.8210874 240.06107692 -42.6875 234.5 C-51.97693798 231.811952 -60.67820793 228.20785401 -68.9375 223.1875 C-70.24792318 222.43387718 -71.56041016 221.68383089 -72.875 220.9375 C-73.885625 220.36 -74.89625 219.7825 -75.9375 219.1875 C-75.9375 218.5275 -75.9375 217.8675 -75.9375 217.1875 C-77.2678125 216.81625 -77.2678125 216.81625 -78.625 216.4375 C-84.67845919 214.15317578 -87.91997057 210.10897355 -91.9375 205.1875 C-92.7625 204.383125 -93.5875 203.57875 -94.4375 202.75 C-101.9375 195.0625 -101.9375 195.0625 -101.9375 191.1875 C-102.5975 191.1875 -103.2575 191.1875 -103.9375 191.1875 C-105.35547496 189.21257096 -106.62856944 187.26744543 -107.875 185.1875 C-108.2369043 184.59026123 -108.59880859 183.99302246 -108.97167969 183.37768555 C-111.14716802 179.71534911 -112.98341577 176.16158343 -114.30078125 172.1171875 C-115.03512911 169.89161793 -115.95315143 167.77951199 -116.875 165.625 C-128.33312028 136.82604634 -129.45298987 98.51420192 -117.1875 69.75 C-116.45257587 68.22182444 -115.69960593 66.70230315 -114.9375 65.1875 C-114.30651126 63.89100453 -113.67638683 62.59408823 -113.046875 61.296875 C-112.34491717 59.86401095 -111.64178049 58.43172385 -110.9375 57 C-110.60524414 56.32203369 -110.27298828 55.64406738 -109.93066406 54.94555664 C-106.95145237 48.98054209 -103.66826977 43.91826977 -98.9375 39.1875 C-98.628125 38.548125 -98.31875 37.90875 -98 37.25 C-96.49885997 34.33602229 -94.30005562 32.434809 -91.9375 30.1875 C-91.380625 29.589375 -90.82375 28.99125 -90.25 28.375 C-88.9375 27.1875 -88.9375 27.1875 -86.9375 27.1875 C-86.67710938 26.59066406 -86.41671875 25.99382812 -86.1484375 25.37890625 C-84.85785504 23.04336831 -83.61524218 21.80573868 -81.5625 20.125 C-80.93601562 19.61195313 -80.30953125 19.09890625 -79.6640625 18.5703125 C-79.09429688 18.11398438 -78.52453125 17.65765625 -77.9375 17.1875 C-77.2775 16.630625 -76.6175 16.07375 -75.9375 15.5 C-73.11113563 13.64519838 -70.04863409 12.49745119 -66.9375 11.1875 C-65.26330562 10.2001546 -63.59698148 9.19937895 -61.9375 8.1875 C-52.31125093 2.78899545 -42.82633073 0.75407142 -31.875 0 C-30.85083984 -0.08185547 -29.82667969 -0.16371094 -28.77148438 -0.24804688 C-19.06615634 -0.98602389 -9.69216028 -0.8542015 0 0 Z M-18.9375 71.1875 C-19.9275 71.8475 -20.9175 72.5075 -21.9375 73.1875 C-21.9375 73.8475 -21.9375 74.5075 -21.9375 75.1875 C-22.494375 75.249375 -23.05125 75.31125 -23.625 75.375 C-30.01403155 77.61979487 -33.4852118 84.74389194 -36.9375 90.1875 C-37.7728125 91.425 -37.7728125 91.425 -38.625 92.6875 C-45.4140857 105.61909181 -44.97356893 121.21505372 -41.9375 135.1875 C-40.90593586 138.40522301 -39.60863861 141.25587801 -37.9375 144.1875 C-37.29361328 145.33605469 -37.29361328 145.33605469 -36.63671875 146.5078125 C-34.92103605 149.43989413 -34.92103605 149.43989413 -32.9375 152.1875 C-32.2775 152.1875 -31.6175 152.1875 -30.9375 152.1875 C-30.751875 152.93 -30.56625 153.6725 -30.375 154.4375 C-28.69621107 157.64909621 -26.88754017 158.60452956 -23.71484375 160.2265625 C-21.9375 161.1875 -21.9375 161.1875 -19.6875 163.125 C-13.32855916 167.89420563 -5.92524011 170.99634041 2.0625 171.1875 C3.13628906 171.22617187 4.21007813 171.26484375 5.31640625 171.3046875 C21.60030987 171.6208798 33.92562135 167.39988985 46.0625 156.1875 C55.81552861 145.36773389 59.64484977 132.8528349 59.5625 118.5 C59.55391968 116.77124634 59.55391968 116.77124634 59.54516602 115.00756836 C59.35924219 106.13393145 58.2646601 99.12134935 54.0625 91.1875 C53.56621094 90.21039063 53.06992188 89.23328125 52.55859375 88.2265625 C48.39454046 80.90184225 42.89341931 76.0167559 36.0625 71.1875 C35.33160156 70.66027344 34.60070313 70.13304687 33.84765625 69.58984375 C19.54392386 60.45356776 -5.17602913 61.89403915 -18.9375 71.1875 Z " fill="#565656" transform="translate(1513.9375,206.8125)"/>
<path d="M0 0 C2.94846304 2.38432987 5.78592669 4.84468113 8.28808594 7.69726562 C8.28808594 8.35726562 8.28808594 9.01726562 8.28808594 9.69726562 C8.94808594 9.69726562 9.60808594 9.69726562 10.28808594 9.69726562 C11.27808594 11.01726562 12.26808594 12.33726562 13.28808594 13.69726562 C13.61808594 5.44726562 13.94808594 -2.80273438 14.28808594 -11.30273438 C37.71808594 -11.30273438 61.14808594 -11.30273438 85.28808594 -11.30273438 C85.28808594 53.37726563 85.28808594 118.05726563 85.28808594 184.69726562 C62.18808594 184.69726562 39.08808594 184.69726562 15.28808594 184.69726562 C14.95808594 175.45726562 14.62808594 166.21726562 14.28808594 156.69726562 C11.64808594 159.99726563 9.00808594 163.29726563 6.28808594 166.69726562 C0.34401817 172.90748568 -6.15871508 177.64487869 -13.71191406 181.69726562 C-14.6490625 182.22320312 -15.58621094 182.74914062 -16.55175781 183.29101562 C-17.53273438 183.81695312 -18.51371094 184.34289062 -19.52441406 184.88476562 C-20.39710938 185.35269531 -21.26980469 185.820625 -22.16894531 186.30273438 C-32.04275969 190.18911997 -41.78054275 191.18905066 -52.33300781 191.08837891 C-54.34280616 191.07221825 -56.35061147 191.08836989 -58.36035156 191.10742188 C-66.29901603 191.08388828 -73.20753273 190.30044905 -80.71191406 187.69726562 C-81.39721191 187.46765137 -82.08250977 187.23803711 -82.78857422 187.00146484 C-97.63972481 181.79302261 -108.65069378 173.62662531 -119.71191406 162.69726562 C-120.45441406 161.97925781 -121.19691406 161.26125 -121.96191406 160.52148438 C-140.55183543 141.21944908 -146.88198479 114.66863049 -146.95214844 88.74316406 C-146.96180166 86.59725372 -146.99288885 84.45232541 -147.02441406 82.30664062 C-147.24408989 53.61339227 -136.28540949 28.43273048 -116.33691406 8.00976562 C-111.46537345 3.25198351 -106.50756944 -0.73750209 -100.71191406 -4.30273438 C-99.7721875 -4.89828125 -98.83246094 -5.49382812 -97.86425781 -6.10742188 C-67.98362077 -23.71093245 -27.32888434 -20.79676652 0 0 Z " fill="#FEFEFE" transform="translate(2313.7119140625,198.302734375)"/>
<path d="M0 0 C27.39 0 54.78 0 83 0 C89.43299861 16.08249654 89.43299861 16.08249654 91.29736328 22.69848633 C92.02503914 25.08201665 92.91104366 27.33583403 93.8671875 29.63671875 C96.3291165 35.7130287 98.33858804 41.90969909 100.35546875 48.14453125 C102.0974736 53.46513431 104.00939074 58.66611123 106.15039062 63.83984375 C107.32621522 66.82941156 108.11782751 69.91239627 109 73 C109.63138945 74.60990644 110.27857213 76.21366747 110.9375 77.8125 C112.30074127 81.1354006 113.46121073 84.41915786 114.4375 87.875 C115.85265188 92.80096584 117.79890861 97.41964405 119.80859375 102.12890625 C121.42518005 106.02461422 122.72150782 109.9837942 124 114 C124.66424585 116.00080531 125.3310619 118.00075858 126 120 C127.85869565 125.5621118 127.85869565 125.5621118 128.7109375 128.203125 C131.20720142 135.89749143 134.13296347 143.43807517 137 151 C137.43699219 149.74509766 137.43699219 149.74509766 137.8828125 148.46484375 C140.36081141 141.42826195 142.96311563 134.46654667 145.76367188 127.55200195 C147.433873 123.42748536 149.04612995 119.28527416 150.625 115.125 C151.99589507 111.53622373 153.4103593 107.99720954 155 104.5 C157.60234881 98.77274238 159.7734668 92.88102539 162 87 C164.82428702 79.56535037 167.72703033 72.17965197 170.80859375 64.84765625 C173.14921744 59.25318192 175.41125651 53.63101049 177.5 47.9375 C178.48571774 45.27920801 179.56901195 42.70215612 180.75 40.125 C184.73920727 31.29066358 188.04318829 22.14131535 191.4921875 13.0859375 C192.14574219 11.37277344 192.14574219 11.37277344 192.8125 9.625 C193.19019531 8.62726563 193.56789063 7.62953125 193.95703125 6.6015625 C194.85867367 4.35252185 195.91638172 2.16723657 197 0 C223.73 0 250.46 0 278 0 C277.17251554 4.13742231 276.67104867 5.92101933 274.625 9.3125 C273.02738659 12.08442754 271.62762244 14.73321609 270.5625 17.75 C269.38460798 21.07770588 267.99817043 24.24054942 266.5 27.4375 C262.86903315 35.19084274 259.45643112 43.03750748 256.046875 50.89038086 C253.5339574 56.64390012 250.9124503 62.2914745 248.00024414 67.85473633 C247.04599309 69.90135678 246.46275409 71.79573862 246 74 C245.34 74 244.68 74 244 74 C243.82984375 74.54527344 243.6596875 75.09054687 243.484375 75.65234375 C241.92206711 80.51378055 240.10893406 85.1399056 237.984375 89.78125 C236.49748829 93.13264543 235.25272759 96.55499913 234 100 C233.34 100 232.68 100 232 100 C231.8453125 100.99 231.8453125 100.99 231.6875 102 C230.80786436 105.83841009 229.43030104 109.33096691 228 113 C227.34 113 226.68 113 226 113 C225.773125 114.11375 225.54625 115.2275 225.3125 116.375 C224.21543694 120.82639255 222.28842265 124.6177214 220.171875 128.6640625 C218.81579207 131.36718781 217.86809714 134.10634288 217 137 C216.67 137.66 216.34 138.32 216 139 C215.34 139 214.68 139 214 139 C213.938125 139.78375 213.87625 140.5675 213.8125 141.375 C213.09290846 144.58548533 212.26605232 146.63393552 210.765625 149.5 C207.90482673 155.10689834 205.40750809 160.83746944 202.9375 166.625 C200.13288791 173.1877064 197.24600561 179.64323901 194 186 C191.99786004 190.43952773 190.27203971 194.93949011 188.5625 199.5 C186.36904246 205.24382876 183.8079687 210.1548282 180.515625 215.3359375 C178.96808301 218.0561015 177.92432864 220.679107 176.875 223.625 C174.38036416 230.28492176 171.38962 236.63927057 168.30493164 243.04370117 C166.18192803 247.46496157 164.15648782 251.89019022 162.3125 256.4375 C160.29519542 261.41167567 157.96313073 266.16610639 155.53125 270.94921875 C152.20563429 277.57499902 149.14699719 284.3279475 146.20703125 291.1328125 C145.9020874 291.83760742 145.59714355 292.54240234 145.28295898 293.26855469 C144.69636654 294.62943653 144.11357288 295.99196495 143.53540039 297.35644531 C142.14250141 300.59513135 140.65645119 303.68517423 138.8828125 306.734375 C137.48357761 309.16126373 136.38603601 311.25186709 135.5 313.875 C134.16887768 317.61516435 132.61044524 321.21113268 130.9765625 324.828125 C130.08399081 326.81320443 129.2230232 328.80808153 128.375 330.8125 C127.32661915 333.24283742 126.18369273 335.63261455 125 338 C97.61 338 70.22 338 42 338 C44.03464165 331.89607505 46.493871 326.15390305 49.11303711 320.28637695 C49.935973 318.44092434 50.75242293 316.59269678 51.56835938 314.74414062 C52.09107422 313.56916016 52.61378906 312.39417969 53.15234375 311.18359375 C53.62663818 310.11681396 54.10093262 309.05003418 54.58959961 307.95092773 C55.91291918 305.18219593 57.40703872 302.61930062 59 300 C59.78884475 298.0359927 60.53639109 296.05507698 61.25 294.0625 C63.47713681 288.13672526 66.14706283 282.59016246 69.03125 276.9609375 C71.42018308 272.22976859 73.5833604 267.39852801 75.75 262.5625 C76.12672852 261.72195068 76.50345703 260.88140137 76.89160156 260.01538086 C78.50229365 256.4057177 80.09583768 252.79072441 81.640625 249.15234375 C82.69167794 246.71498822 83.78182467 244.35513897 85 242 C86.83013442 238.38862788 88.44774892 234.73951397 90 231 C90.4125 230.195625 90.825 229.39125 91.25 228.5625 C93.39909875 221.21974595 89.96980114 215.63357059 86.6171875 209.28125 C84.38727206 204.75678388 82.79173021 200.08272131 81.1484375 195.3203125 C79.01062105 189.13955066 76.65049392 183.17546924 73.625 177.375 C71.06338821 172.3853574 69.15412924 167.23830684 67.24194336 161.9765625 C65.72978007 157.84615731 64.07150755 153.85476235 62.1875 149.875 C60.47961322 146.2457406 59.32823424 143.04822229 59 139 C58.34 139 57.68 139 57 139 C56.5875 137.88625 56.175 136.7725 55.75 135.625 C53.90718869 130.71936803 51.97095796 125.8554393 50 121 C49.7417041 120.36320312 49.4834082 119.72640625 49.21728516 119.0703125 C44.97757399 108.61312608 44.97757399 108.61312608 40.375 98.3125 C38.49026583 94.2597056 36.9623628 90.16109442 35.5 85.9375 C33.71457248 80.80018497 31.64439315 76.04515144 29.12109375 71.234375 C27.76449017 68.53062152 26.75591441 65.77267678 25.74609375 62.92578125 C24.95633986 60.88730655 24.01236663 58.99936748 23 57.0625 C21.19416378 53.56027218 19.96700471 50.0396562 18.78125 46.2890625 C17.71114508 43.15365508 16.34252717 40.18588956 14.96484375 37.17578125 C14.07920269 35.17860687 13.30311262 33.17946779 12.5625 31.125 C11.40055134 27.94063258 10.05310097 24.88669866 8.625 21.8125 C5.34659428 14.7092876 2.4741793 7.4225379 0 0 Z " fill="#565656" transform="translate(505,212)"/>
<path d="M0 0 C83.16 0 166.32 0 252 0 C252 23.1 252 46.2 252 70 C223.62 70 195.24 70 166 70 C166 165.37 166 260.74 166 359 C139.27 359 112.54 359 85 359 C85 263.63 85 168.26 85 70 C56.95 70 28.9 70 0 70 C0 46.9 0 23.8 0 0 Z " fill="#565656" transform="translate(795,77)"/>
<path d="M0 0 C83.16 0 166.32 0 252 0 C252 23.1 252 46.2 252 70 C223.62 70 195.24 70 166 70 C166 165.37 166 260.74 166 359 C139.27 359 112.54 359 85 359 C85 263.63 85 168.26 85 70 C56.95 70 28.9 70 0 70 C0 46.9 0 23.8 0 0 Z " fill="#565656" transform="translate(9,77)"/>
<path d="M0 0 C26.73 0 53.46 0 81 0 C81 30.03 81 60.06 81 91 C97.5 91 114 91 131 91 C131 113.77 131 136.54 131 160 C114.5 160 98 160 81 160 C81.12019667 172.35070093 81.12019667 172.35070093 81.2578125 184.70117188 C81.31788058 189.74597348 81.37600508 194.79074007 81.421875 199.83569336 C81.45902851 203.90772786 81.50546536 207.9795646 81.55806351 212.05142784 C81.57644916 213.59693585 81.59161402 215.142486 81.60334396 216.68805885 C81.27322713 233.67816588 81.27322713 233.67816588 88.44140625 248.47265625 C91.88664027 251.84881289 95.1015346 252.13109904 99.75 252.375 C107.19472491 252.23076539 112.78657631 248.78444131 119 245 C129 263.21917808 129 263.21917808 129 269 C129.66 269 130.32 269 131 269 C133.08097971 273.08763871 135.10165794 277.17129635 136.9375 281.375 C138.7616693 285.54246979 140.77516574 289.59363514 142.8515625 293.640625 C144.65235007 297.34020218 146.10635618 300.97860282 147 305 C136.93626628 310.32941483 127.0298062 314.97163152 116 318 C115.32710937 318.19609863 114.65421875 318.39219727 113.9609375 318.59423828 C87.38236761 326.09091517 56.5694797 324.71768222 32 312 C32 311.34 32 310.68 32 310 C31.030625 309.731875 30.06125 309.46375 29.0625 309.1875 C28.051875 308.795625 27.04125 308.40375 26 308 C25.505 306.515 25.505 306.515 25 305 C24.01 305 23.02 305 22 305 C20.29115995 303.37660195 18.62553283 301.70680947 17 300 C16.01 299.34 15.02 298.68 14 298 C13.505 296.515 13.505 296.515 13 295 C12.34 294.67 11.68 294.34 11 294 C11 292.68 11 291.36 11 290 C10.34 290 9.68 290 9 290 C0.45963062 273.16427184 -0.56849125 258.3372931 -0.390625 239.78515625 C-0.38314927 237.47489414 -0.37746265 235.16462562 -0.37347412 232.85435486 C-0.35832266 226.82258077 -0.31913282 220.79120214 -0.2746582 214.75958252 C-0.23347743 208.58521878 -0.21541472 202.4107901 -0.1953125 196.23632812 C-0.15262704 184.15735185 -0.08236462 172.07877094 0 160 C-12.87 160 -25.74 160 -39 160 C-39 137.23 -39 114.46 -39 91 C-26.13 91 -13.26 91 0 91 C0 60.97 0 30.94 0 0 Z " fill="#565656" transform="translate(1733,121)"/>
<path d="M0 0 C0.9796875 0.03996094 1.959375 0.07992187 2.96875 0.12109375 C14.31946983 0.65927443 25.61174837 5.74116558 35 12 C34.40832525 15.69468013 33.36678634 18.5708841 31.625 21.875 C29.86294932 25.23694946 28.30165093 28.62457273 26.82568359 32.12158203 C25.04342782 36.17618757 22.97117922 40.09415206 20.9609375 44.0390625 C18.80479583 48.30196855 16.84197347 52.59185837 15 57 C13.14304271 61.34937525 11.29274976 65.61597345 8.875 69.6875 C7.13301473 72.76500732 5.99014383 75.61700857 5 79 C-0.06041619 78.33879579 -2.42650937 76.21085443 -6.1328125 72.88671875 C-14.82960197 67.16389952 -23.55934457 66.38757734 -33.75 66.5625 C-34.92949219 66.55541016 -36.10898437 66.54832031 -37.32421875 66.54101562 C-43.73836126 66.58791318 -48.28713248 67.12065367 -54 70 C-55.32 70 -56.64 70 -58 70 C-58 70.66 -58 71.32 -58 72 C-59.97290587 74.34869747 -61.00306862 75.00102287 -64 76 C-64.66 76.99 -65.32 77.98 -66 79 C-66.99 79 -67.98 79 -69 79 C-69.495 80.98 -69.495 80.98 -70 83 C-70.66 83 -71.32 83 -72 83 C-72.11601562 83.56589844 -72.23203125 84.13179688 -72.3515625 84.71484375 C-73.06720321 87.2368306 -74.12357551 89.26063737 -75.375 91.5625 C-81.03704617 102.65749221 -82.13758042 114.00909299 -82.20532227 126.25952148 C-82.21522186 127.37245071 -82.22512146 128.48537994 -82.23532104 129.6320343 C-82.26680095 133.29503279 -82.29163994 136.95804423 -82.31640625 140.62109375 C-82.33698744 143.16700062 -82.35798422 145.71290416 -82.37937927 148.25880432 C-82.42885373 154.26509786 -82.47415 160.27140873 -82.51740164 166.27774912 C-82.57176458 173.79132039 -82.63255455 181.30483795 -82.69335938 188.81835938 C-82.80172372 202.21219819 -82.90040912 215.6060867 -83 229 C-110.06 229 -137.12 229 -165 229 C-165 155.08 -165 81.16 -165 5 C-137.94 5 -110.88 5 -83 5 C-82.505 19.355 -82.505 19.355 -82 34 C-81.34 32.68 -80.68 31.36 -80 30 C-79.34 30 -78.68 30 -78 30 C-77.72929687 29.42636719 -77.45859375 28.85273438 -77.1796875 28.26171875 C-75.97823397 25.95826975 -74.64824789 23.91584489 -73.125 21.8125 C-72.63257813 21.11769531 -72.14015625 20.42289063 -71.6328125 19.70703125 C-69.74693548 17.73543255 -68.58068416 17.6208759 -66 17 C-65.505 15.515 -65.505 15.515 -65 14 C-63.3523962 13.28752268 -61.68236471 12.62599617 -60 12 C-58.65879312 11.01058509 -57.32617377 10.00947556 -56 9 C-54.62276974 8.13626859 -53.22587195 7.30322778 -51.8125 6.5 C-51.11769531 6.0978125 -50.42289062 5.695625 -49.70703125 5.28125 C-42.4487768 1.8458857 -35.41008138 0.39646362 -27.4375 -0.25 C-26.47803467 -0.3322583 -25.51856934 -0.4145166 -24.5300293 -0.49926758 C-16.21596252 -1.13347942 -8.29000209 -0.81219615 0 0 Z " fill="#565656" transform="translate(467,207)"/>
<path d="M0 0 C23.43 0 46.86 0 71 0 C71 65.01 71 130.02 71 197 C47.57 197 24.14 197 0 197 C0 131.99 0 66.98 0 0 Z " fill="#FEFEFE" transform="translate(2453,187)"/>
<path d="M0 0 C0.83184814 0.00829834 1.66369629 0.01659668 2.52075195 0.02514648 C13.12148125 0.3166432 20.25043043 3.75003401 27.5625 11.4375 C35.42191067 19.93139434 36.28320186 30.97111469 35.91015625 42.08984375 C34.84427713 59.29290348 27.07062245 73.91203963 14.5625 85.4375 C3.01105772 94.39900405 -9.3669482 97.63669163 -23.8359375 96.19921875 C-30.76970008 94.99493367 -36.48838199 91.38661801 -41.4375 86.4375 C-43.31979031 91.51346606 -44.25865136 96.53426905 -45.12890625 101.8515625 C-45.279077 102.74362396 -45.42924774 103.63568542 -45.58396912 104.55477905 C-46.06049978 107.38995112 -46.53056592 110.22614508 -47 113.0625 C-47.47412305 115.90579499 -47.94961308 118.74885226 -48.42674255 121.59164429 C-48.72257685 123.35646711 -49.01648799 125.12161366 -49.3082428 126.88711548 C-49.50866432 128.08888931 -49.50866432 128.08888931 -49.71313477 129.31494141 C-49.82923599 130.01632233 -49.94533722 130.71770325 -50.06495667 131.44033813 C-50.44100779 133.45630484 -50.9401224 135.44798958 -51.4375 137.4375 C-60.0175 137.4375 -68.5975 137.4375 -77.4375 137.4375 C-76.31248583 125.06234408 -76.31248583 125.06234408 -75.5267334 120.54798889 C-75.35010666 119.52053558 -75.17347992 118.49308228 -74.99150085 117.43449402 C-74.80030167 116.34888687 -74.60910248 115.26327972 -74.41210938 114.14477539 C-74.20874466 112.96941223 -74.00537994 111.79404907 -73.79585266 110.58306885 C-73.24330595 107.39496297 -72.68687196 104.20756726 -72.12852669 101.02047276 C-71.54274718 97.67167978 -70.96180692 94.32204712 -70.38024902 90.97251892 C-69.40473241 85.35803257 -68.42591621 79.74412988 -67.44482422 74.13061523 C-66.18630073 66.92961757 -64.93329488 59.72767116 -63.68199921 52.52541447 C-62.60336941 46.31725935 -61.52221638 40.10954406 -60.44066048 33.90189815 C-60.09411956 31.91227804 -59.7479258 29.92259775 -59.40177917 27.93290901 C-58.75703584 24.22982056 -58.11028586 20.52708852 -57.46289062 16.82446289 C-57.27169144 15.72468613 -57.08049225 14.62490936 -56.88349915 13.49180603 C-56.70687241 12.48409149 -56.53024567 11.47637695 -56.3482666 10.43812561 C-56.19562599 9.56380418 -56.04298538 8.68948275 -55.8857193 7.78866673 C-55.47909383 5.65568343 -54.96414096 3.54406386 -54.4375 1.4375 C-45.8575 1.4375 -37.2775 1.4375 -28.4375 1.4375 C-28.4375 4.0775 -28.4375 6.7175 -28.4375 9.4375 C-27.51130859 8.84001953 -27.51130859 8.84001953 -26.56640625 8.23046875 C-25.71949219 7.70066406 -24.87257813 7.17085937 -24 6.625 C-23.17628906 6.10292969 -22.35257813 5.58085938 -21.50390625 5.04296875 C-14.452138 1.35089646 -7.93391979 -0.10259727 0 0 Z M-30.4375 34.4375 C-35.53598796 42.51515195 -37.34639353 49.92704888 -36.4375 59.4375 C-35.1652352 64.25103688 -32.88110353 67.49256147 -28.875 70.4375 C-23.8313153 73.18860074 -19.03662081 73.38240044 -13.4375 72.4375 C-5.59083941 70.01511881 0.01422581 65.19703192 4.5625 58.4375 C8.75803235 50.31902639 9.9976016 42.50256449 7.5 33.6875 C4.90725584 29.33838076 1.52624977 25.40406672 -3.42578125 23.7890625 C-14.76649761 21.80718974 -22.96114534 25.96429805 -30.4375 34.4375 Z " fill="#FF7E27" transform="translate(2042.4375,532.5625)"/>
<path d="M0 0 C1.24003784 0.00966797 1.24003784 0.00966797 2.50512695 0.01953125 C11.78659897 0.29477927 19.15582071 2.85273864 26.125 9.125 C35.00149313 18.87064975 36.42779425 30.65044266 35.86230469 43.30957031 C34.54819621 59.77630387 26.83745719 74.39653548 14.6875 85.5 C3.08713655 94.43342517 -9.20864001 97.70250075 -23.7109375 96.26171875 C-29.91017855 95.18500846 -34.31573693 92.19238717 -39.3125 88.5 C-40.3025 87.84 -41.2925 87.18 -42.3125 86.5 C-42.459506 87.3699057 -42.459506 87.3699057 -42.60948181 88.25738525 C-43.62962289 94.29218905 -44.65194557 100.32662036 -45.67553711 106.36083984 C-46.05728241 108.61302357 -46.43847096 110.86530175 -46.8190918 113.11767578 C-47.36621166 116.35474221 -47.91533143 119.59146396 -48.46484375 122.828125 C-48.6346727 123.83554749 -48.80450165 124.84296997 -48.97947693 125.88092041 C-49.13956741 126.82159363 -49.2996579 127.76226685 -49.46459961 128.73144531 C-49.60449814 129.55751282 -49.74439667 130.38358032 -49.88853455 131.23468018 C-50.28252324 133.33982906 -50.79306145 135.4222458 -51.3125 137.5 C-59.8925 137.5 -68.4725 137.5 -77.3125 137.5 C-76.18748856 123.99986275 -76.18748856 123.99986275 -75.4017334 119.52819824 C-75.13679329 117.99757751 -75.13679329 117.99757751 -74.86650085 116.43603516 C-74.67530167 115.36337402 -74.48410248 114.29071289 -74.28710938 113.18554688 C-74.08374466 112.01979126 -73.88037994 110.85403564 -73.67085266 109.6529541 C-73.00445297 105.84063237 -72.33047677 102.02969457 -71.65625 98.21875 C-71.18825809 95.55522731 -70.72179216 92.89143792 -70.25524902 90.22766113 C-69.28032819 84.66611852 -68.30146533 79.10528208 -67.31982422 73.54492188 C-66.06065524 66.41245334 -64.80780172 59.27889079 -63.55699921 52.14495087 C-62.47845036 45.99357634 -61.39734494 39.8426516 -60.31566048 33.69182777 C-59.96916947 31.72113579 -59.62297414 29.75039183 -59.27677917 27.77964783 C-58.63204661 24.11258648 -57.98530807 20.44588504 -57.33789062 16.77929688 C-57.14669144 15.69044189 -56.95549225 14.60158691 -56.75849915 13.47973633 C-56.58187241 12.4818811 -56.40524567 11.48402588 -56.2232666 10.45593262 C-56.07062599 9.59028435 -55.91798538 8.72463608 -55.7607193 7.83275604 C-55.35212738 5.70624058 -54.8376899 3.60075961 -54.3125 1.5 C-45.7325 1.5 -37.1525 1.5 -28.3125 1.5 C-28.3125 4.14 -28.3125 6.78 -28.3125 9.5 C-27.38630859 8.90251953 -27.38630859 8.90251953 -26.44140625 8.29296875 C-25.59449219 7.76316406 -24.74757813 7.23335937 -23.875 6.6875 C-23.05128906 6.16542969 -22.22757813 5.64335938 -21.37890625 5.10546875 C-14.39825442 1.45063066 -7.85828306 -0.06464397 0 0 Z M-28.77734375 32.43359375 C-35.16752771 41.03513909 -37.49631018 49.88652945 -36.3125 60.5 C-34.48942927 65.56862714 -31.26858097 69.50958556 -26.38671875 71.87109375 C-20.09587729 73.77848636 -14.09381426 73.20714386 -8.125 70.5625 C0.48866675 65.72074146 5.73221503 58.432374 8.375 49.0625 C9.198115 42.31295697 9.13244898 36.50295214 5.6875 30.5 C1.58548599 25.84397835 -2.91288358 23.74402879 -9 23.125 C-16.78602878 23.37474055 -23.56332124 26.72651947 -28.77734375 32.43359375 Z " fill="#FF7E27" transform="translate(2562.3125,532.5)"/>
<path d="M0 0 C0.79019531 -0.01160156 1.58039062 -0.02320313 2.39453125 -0.03515625 C12.38770108 0.01391005 20.4272033 3.26231911 27.5 10.375 C36.17453363 21.92250951 36.75142705 34.44005209 35.5 48.375 C32.94625724 63.8328823 24.68456923 77.60276037 12.5 87.375 C1.14301757 94.793648 -10.86775727 97.99039599 -24.328125 95.9453125 C-31.37675269 94.35051126 -36.16850929 91.17992373 -41.5 86.375 C-43.04395087 92.23636522 -44.20820317 98.07577763 -45.19140625 104.0546875 C-45.341577 104.94866241 -45.49174774 105.84263733 -45.64646912 106.76370239 C-46.1214968 109.59197341 -46.59250858 112.420888 -47.0625 115.25 C-47.68516841 118.99801525 -48.31196937 122.74530371 -48.94140625 126.4921875 C-49.08308731 127.35359344 -49.22476837 128.21499939 -49.3707428 129.10250854 C-50.38718439 135.14936877 -50.38718439 135.14936877 -51.5 137.375 C-60.08 137.375 -68.66 137.375 -77.5 137.375 C-76.375 127.25 -76.375 127.25 -75.54454041 122.47129822 C-75.35805435 121.39032867 -75.1715683 120.30935913 -74.97943115 119.19563293 C-74.77731018 118.04044662 -74.57518921 116.88526031 -74.36694336 115.69506836 C-74.04485649 113.83504181 -74.04485649 113.83504181 -73.71626282 111.93743896 C-73.13199271 108.56368735 -72.54439584 105.19052298 -71.95616603 101.81745982 C-71.34028371 98.28241941 -70.72750963 94.74684028 -70.11439514 91.21131897 C-68.95496515 84.52824555 -67.79277071 77.84565602 -66.62956387 71.16323906 C-65.30455451 63.55049038 -63.98265592 55.93720257 -62.66100872 48.32386959 C-59.94411507 32.67364665 -57.22293683 17.02417282 -54.5 1.375 C-45.59 1.375 -36.68 1.375 -27.5 1.375 C-27.5 4.015 -27.5 6.655 -27.5 9.375 C-26.95472656 8.97667969 -26.40945312 8.57835937 -25.84765625 8.16796875 C-25.09355469 7.63816406 -24.33945313 7.10835937 -23.5625 6.5625 C-22.83160156 6.04042969 -22.10070313 5.51835938 -21.34765625 4.98046875 C-14.43366117 1.08245506 -7.86601631 -0.115488 0 0 Z M-29.5 33.375 C-34.29991115 41.36040523 -37.49169156 48.90885329 -36.5 58.375 C-34.63681715 64.16067305 -31.93391799 68.2520789 -26.69921875 71.48828125 C-21.65477001 73.52218865 -15.29803362 73.23486083 -10.1484375 71.65234375 C-0.78626242 67.18814057 3.5672773 60.65940578 7.8125 51.5625 C9.40493264 44.17940323 9.67441992 36.66688961 5.77734375 29.99609375 C2.70087736 26.0917098 -1.52583591 23.73930524 -6.4453125 23.13671875 C-15.42369904 22.83100308 -23.70514167 26.39074354 -29.5 33.375 Z " fill="#FF7E27" transform="translate(2448.5,532.625)"/>
<path d="M0 0 C7.64967407 -0.07642165 15.29924869 -0.12875549 22.94921875 -0.16479492 C25.54854003 -0.17982831 28.14783617 -0.20026046 30.74707031 -0.22631836 C34.49550605 -0.26294101 38.24360472 -0.27978152 41.9921875 -0.29296875 C43.14363251 -0.30845261 44.29507751 -0.32393646 45.48141479 -0.33988953 C56.40498368 -0.34213892 65.53596463 1.84069735 74 9 C80.8796422 16.45014912 81.63069276 24.90474312 81.37109375 34.66796875 C80.73821416 44.98097818 75.28287413 53.889356 68 61 C62.66596676 65.01567844 56.96223553 68.03430979 51 71 C51.22550537 71.53426605 51.45101074 72.0685321 51.68334961 72.61898804 C54.0233188 78.16477102 56.35832862 83.71262262 58.69042969 89.26171875 C59.56219697 91.33419757 60.43524042 93.40614005 61.30957031 95.47753906 C62.56388446 98.44978008 63.81364211 101.42390053 65.0625 104.3984375 C65.45622803 105.32868744 65.84995605 106.25893738 66.25561523 107.21737671 C66.61598877 108.07811798 66.9763623 108.93885925 67.34765625 109.82568359 C67.66742432 110.58513275 67.98719238 111.34458191 68.31665039 112.12704468 C69 114 69 114 69 116 C59.1 116 49.2 116 39 116 C33.36481647 103.60259624 33.36481647 103.60259624 30.88671875 97.21484375 C30.62744095 96.54707413 30.36816315 95.8793045 30.10102844 95.19129944 C29.56438406 93.8066129 29.02931926 92.42131313 28.49584961 91.03540039 C27.67602235 88.90771218 26.84903756 86.78289668 26.02148438 84.65820312 C25.49697178 83.30224729 24.97286748 81.94613343 24.44921875 80.58984375 C23.97830811 79.37159912 23.50739746 78.15335449 23.0222168 76.89819336 C22 74 22 74 22 72 C19.36 72 16.72 72 14 72 C13.885354 72.83297607 13.77070801 73.66595215 13.65258789 74.52416992 C12.39899747 83.4820275 10.97255139 92.39826983 9.4375 101.3125 C9.21411819 102.63735723 8.99081062 103.96222698 8.76757812 105.28710938 C8.55423828 106.52912109 8.34089844 107.77113281 8.12109375 109.05078125 C7.9295874 110.17137939 7.73808105 111.29197754 7.54077148 112.4465332 C7 115 7 115 6 116 C4.07332493 116.08748207 2.14348139 116.10697334 0.21484375 116.09765625 C-1.53989258 116.09282227 -1.53989258 116.09282227 -3.33007812 116.08789062 C-5.17762695 116.07532227 -5.17762695 116.07532227 -7.0625 116.0625 C-8.91584961 116.05573242 -8.91584961 116.05573242 -10.80664062 116.04882812 C-13.87114349 116.03699607 -16.93554036 116.01967435 -20 116 C-18.34533033 103.37214865 -16.0939335 90.85698134 -13.8671875 78.3203125 C-13.466281 76.05349208 -13.06557843 73.78663559 -12.66506958 71.51974487 C-11.61825929 65.59792656 -10.56870726 59.67659748 -9.51855469 53.75537109 C-8.44428503 47.69528393 -7.37264888 41.63473114 -6.30078125 35.57421875 C-4.20307653 23.71569248 -2.10247074 11.85768213 0 0 Z M23 22 C21.5613558 27.53565267 20.36162083 33.05470045 19.375 38.6875 C19.17390625 39.78674805 19.17390625 39.78674805 18.96875 40.90820312 C18.30548269 44.66107787 17.93821348 48.19601021 18 52 C21.35399849 52.0878954 24.7076964 52.14068879 28.0625 52.1875 C29.47692383 52.22520508 29.47692383 52.22520508 30.91992188 52.26367188 C38.1503998 52.33925178 42.60553459 51.16011435 48.75 47.25 C53.00968127 42.99031873 54.17761883 38.73013908 54.5 32.875 C54.39325636 28.97885719 54.13144623 28.16949645 51.625 24.9375 C47.89290918 22.18286154 46.14406907 21.87818911 41.5546875 21.90234375 C40.47832031 21.90556641 39.40195312 21.90878906 38.29296875 21.91210938 C36.60107422 21.92467773 36.60107422 21.92467773 34.875 21.9375 C33.73933594 21.94201172 32.60367188 21.94652344 31.43359375 21.95117188 C28.62234362 21.96298385 25.8111977 21.97945493 23 22 Z " fill="#FF7E27" transform="translate(778,511)"/>
<path d="M0 0 C0.89009766 -0.01160156 1.78019531 -0.02320313 2.69726562 -0.03515625 C14.28503765 0.01563019 24.10774836 4.41770102 32.640625 12.29296875 C43.31514686 23.91891538 46.44733119 37.75862206 45.90625 53.2265625 C45.23213017 63.68986534 41.17471512 73.24816418 34.5625 81.375 C33.9025 81.375 33.2425 81.375 32.5625 81.375 C32.31113281 81.973125 32.05976563 82.57125 31.80078125 83.1875 C28.03455315 89.84077362 19.19182175 92.73310915 12.23046875 94.68359375 C-2.10670411 97.38612793 -14.73774248 95.44054561 -26.89453125 87.26171875 C-37.03809635 79.73584787 -43.22302921 69.80757446 -45.4375 57.375 C-45.67138207 53.96032178 -45.66830244 50.5469648 -45.6875 47.125 C-45.708125 46.22136719 -45.72875 45.31773437 -45.75 44.38671875 C-45.82193098 31.88871126 -40.62106615 21.66112403 -32.125 12.5625 C-22.88025553 3.9188712 -12.48806512 -0.16206573 0 0 Z " fill="#2257A6" transform="translate(2282.4375,237.625)"/>
<path d="M0 0 C1.20970459 0.00523682 2.41940918 0.01047363 3.66577148 0.01586914 C4.97094727 0.0190918 6.27612305 0.02231445 7.62084961 0.02563477 C9.00952213 0.03399138 10.39819401 0.04245634 11.78686523 0.05102539 C13.17944179 0.05603873 14.57202005 0.06060193 15.96459961 0.06469727 C19.38456602 0.07653106 22.80443753 0.0938533 26.22436523 0.11352539 C29.13092381 11.86314926 31.2718059 23.74449755 33.45483398 35.64477539 C33.85398196 37.81142509 34.25326094 39.97805066 34.65266418 42.14465332 C35.48415654 46.65930121 36.31338521 51.17435778 37.14111328 55.68969727 C38.20198701 61.47527752 39.2696342 67.25958496 40.33907604 73.04358673 C41.16314406 77.50565331 41.98311873 81.96846474 42.80190468 86.4315033 C43.19403915 88.56560256 43.58757185 90.6994454 43.98253441 92.83302307 C44.53247753 95.80662281 45.07677172 98.7812032 45.61962891 101.75610352 C45.78322906 102.63407593 45.94682922 103.51204834 46.11538696 104.41662598 C46.26250626 105.22929932 46.40962555 106.04197266 46.561203 106.87927246 C46.69004474 107.58046455 46.81888647 108.28165665 46.9516325 109.00409698 C47.22436523 111.11352539 47.22436523 111.11352539 47.22436523 116.11352539 C38.31436523 116.11352539 29.40436523 116.11352539 20.22436523 116.11352539 C18.22436523 108.11352539 18.22436523 108.11352539 16.22436523 95.11352539 C2.03436523 95.11352539 -12.15563477 95.11352539 -26.77563477 95.11352539 C-27.43563477 97.09352539 -28.09563477 99.07352539 -28.77563477 101.11352539 C-29.38635382 102.4208798 -30.03153819 103.71308974 -30.72094727 104.98071289 C-31.0407959 105.57480957 -31.36064453 106.16890625 -31.69018555 106.78100586 C-32.08963379 107.5094873 -32.48908203 108.23796875 -32.90063477 108.98852539 C-34.17938477 111.33977539 -35.45813477 113.69102539 -36.77563477 116.11352539 C-46.01563477 116.11352539 -55.25563477 116.11352539 -64.77563477 116.11352539 C-55.97414837 98.34129325 -46.824845 80.76728304 -37.27661133 63.38452148 C-33.689943 56.83774334 -30.21033614 50.24115024 -26.77563477 43.61352539 C-20.9396425 32.35613527 -14.8984506 21.21712366 -8.77563477 10.11352539 C-8.30625488 9.25726562 -7.836875 8.40100586 -7.35327148 7.51879883 C-6.9035498 6.70185547 -6.45382813 5.88491211 -5.99047852 5.04321289 C-5.38707642 3.94468994 -5.38707642 3.94468994 -4.77148438 2.82397461 C-3.20361092 0.13102991 -3.20361092 0.13102991 0 0 Z M5.22436523 34.11352539 C4.72509521 35.08700928 4.2258252 36.06049316 3.71142578 37.06347656 C1.85133175 40.68919975 -0.01101212 44.31376335 -1.87402344 47.93798828 C-2.6786705 49.50408096 -3.48271435 51.07048372 -4.28613281 52.63720703 C-5.44379188 54.89446301 -6.60364514 57.1505798 -7.76391602 59.40649414 C-8.12028641 60.10252243 -8.4766568 60.79855072 -8.84382629 61.51567078 C-10.32880253 64.39854328 -11.83048036 67.20301755 -13.52636719 69.97021484 C-14.94349182 71.98804059 -14.94349182 71.98804059 -14.77563477 74.11352539 C-5.53563477 74.11352539 3.70436523 74.11352539 13.22436523 74.11352539 C12.04366246 65.35664652 10.69274644 56.63891999 9.22436523 47.92602539 C9.05839844 46.91016357 8.89243164 45.89430176 8.72143555 44.84765625 C8.55740234 43.88996338 8.39336914 42.93227051 8.22436523 41.94555664 C8.07999023 41.08679932 7.93561523 40.22804199 7.78686523 39.34326172 C7.28997135 36.84975136 7.28997135 36.84975136 5.22436523 34.11352539 Z " fill="#FF7E27" transform="translate(2315.775634765625,510.886474609375)"/>
<path d="M0 0 C2.17981404 1.56079991 4.04666513 3.14947223 6 5 C6.66 2.36 7.32 -0.28 8 -3 C16.91 -3 25.82 -3 35 -3 C33.20980733 7.50160353 31.41909933 18.00311884 29.62750435 28.50448322 C28.79546061 33.38159693 27.96363559 38.25874773 27.13232422 43.13598633 C26.32884438 47.84988954 25.52477198 52.56369133 24.72030258 57.27742577 C24.41472496 59.06854908 24.10935461 60.85970776 23.80420303 62.6509037 C23.37410007 65.17532442 22.94323485 67.69961401 22.51220703 70.22387695 C22.38848724 70.95108948 22.26476746 71.678302 22.13729858 72.42755127 C21.13433823 78.29386388 20.06482485 84.14346335 19 90 C10.09 90 1.18 90 -8 90 C-8 87.69 -8 85.38 -8 83 C-8.58265625 83.39832031 -9.1653125 83.79664063 -9.765625 84.20703125 C-20.8441942 91.36629531 -32.56117055 93.58750694 -45.5625 91.375 C-53.88214451 89.21695268 -60.60972812 84.5374686 -65.52734375 77.515625 C-72.90847547 64.90700743 -72.74617142 49.89545866 -69.375 36 C-64.8854625 21.43637834 -56.01290097 9.18202469 -43 1 C-30.36157281 -5.11416537 -12.50048084 -7.80968164 0 0 Z M-39 31 C-43.21290831 38.43669902 -44.72209504 45.49240748 -44 54 C-42.1937384 59.79905041 -39.42576473 63.92267458 -34.1640625 67.11328125 C-28.53188399 69.42105114 -21.80062932 68.65584757 -16.25 66.4375 C-8.00101661 62.23184657 -3.25436643 55.60851417 -0.31640625 46.99609375 C1.76765608 39.65157064 1.98391772 33.54726422 -1.796875 26.7578125 C-4.57966001 22.69205518 -8.30929908 20.30903281 -13 19 C-23.82226504 17.89943067 -32.46823641 22.41668942 -39 31 Z " fill="#FF7E27" transform="translate(1042,537)"/>
<path d="M0 0 C2.17981404 1.56079991 4.04666513 3.14947223 6 5 C7.8 3.4 7.8 3.4 8 -3 C16.91 -3 25.82 -3 35 -3 C30.12358517 28.08218883 24.58911812 59.03893656 19 90 C10.09 90 1.18 90 -8 90 C-7.67 87.36 -7.34 84.72 -7 82 C-7.556875 82.39832031 -8.11375 82.79664063 -8.6875 83.20703125 C-18.74601772 90.19022514 -28.70017006 93.12527034 -41 92 C-50.90002441 89.87938942 -58.3911015 87.021329 -64.25 78.625 C-71.40313659 67.1418314 -72.89786947 54.20882118 -70.31640625 40.97265625 C-66.40882888 25.26127671 -58.96549864 11.35074595 -45 2.5 C-43.35172209 1.63086126 -41.68471328 0.79621817 -40 0 C-39.20722656 -0.40992188 -38.41445312 -0.81984375 -37.59765625 -1.2421875 C-26.60901306 -6.15236705 -10.3979406 -6.49611858 0 0 Z M-36.46484375 27.93359375 C-42.36806621 35.87966164 -45.05080211 44.15798025 -44 54 C-42.19557204 59.94945675 -38.97360533 63.43197879 -34 67 C-29.33959885 69.33020057 -22.47441712 68.77905792 -17.60546875 67.24609375 C-15.627547 66.28171507 -13.8271226 65.22378703 -12 64 C-11.13375 63.46375 -10.2675 62.9275 -9.375 62.375 C-2.460858 55.460858 0.9037801 47.11598712 1.3125 37.4375 C1.15299006 32.28001196 -0.00678083 28.1328408 -3.6171875 24.26953125 C-8.42785217 19.92341574 -12.1203157 18.60361389 -18.72265625 18.7265625 C-25.78279919 19.57426405 -31.69701562 22.71490717 -36.46484375 27.93359375 Z " fill="#FF7E27" transform="translate(1500,537)"/>
<path d="M0 0 C2.75 2.4375 2.75 2.4375 5 5 C5.70125 5.7425 6.4025 6.485 7.125 7.25 C11.91621311 14.27711256 12 20.33264828 12 29 C2.76 29 -6.48 29 -16 29 C-16.495 25.04 -16.495 25.04 -17 21 C-19.25451698 18.06912793 -20.48442865 17.17185712 -24 16 C-29.98318742 15.46449958 -34.88699662 15.50819281 -40 19 C-42.64876362 21.47217938 -42.97180687 22.80617222 -43.5 26.4375 C-42.85851874 31.00805399 -41.44561353 32.0054317 -38 35 C-35.73582149 36.38167288 -33.5443891 37.62224614 -31.1875 38.8125 C-30.54167969 39.14942871 -29.89585938 39.48635742 -29.23046875 39.83349609 C-25.74903439 41.63865329 -22.23844173 43.37696315 -18.70703125 45.08203125 C-6.96721744 50.76271712 1.4163272 55.78484137 6.3125 68.375 C8.02002278 77.37830194 7.43131634 86.15636429 2.7109375 94.1953125 C-4.39085588 104.18339623 -13.85334837 109.91071295 -26 112 C-40.75889506 113.05649673 -56.41397711 113.59725922 -68.35546875 103.56640625 C-73.87630215 98.30784522 -77.78615458 93.23506901 -78.1796875 85.44140625 C-78.18669853 81.96042922 -78.09941612 78.47956415 -78 75 C-69.09 75 -60.18 75 -51 75 C-50.34 78.3 -49.68 81.6 -49 85 C-45.19359625 89.10690931 -42.13457045 89.83580227 -36.75 90.25 C-31.5169288 89.90112859 -27.05843937 88.73680822 -23 85.3125 C-21.11322072 80.94932291 -21.50587603 76.48237192 -23 72 C-24.67027744 70.93204446 -24.67027744 70.93204446 -27 70 C-28.17046875 69.45085937 -29.3409375 68.90171875 -30.546875 68.3359375 C-31.21928223 68.02261475 -31.89168945 67.70929199 -32.58447266 67.38647461 C-35.61810227 65.96952675 -38.6436563 64.53572791 -41.66894531 63.10107422 C-43.19202657 62.38164643 -44.71733823 61.66691668 -46.24511719 60.95751953 C-56.74195834 56.07510414 -65.81335708 51.79227449 -70.28125 40.44921875 C-73.03111427 31.07875734 -72.28540073 21.79071367 -68.375 12.875 C-62.71353829 2.57197225 -53.32865857 -2.60655115 -42.375 -5.8125 C-28.4359468 -8.94789114 -12.21421841 -8.00045541 0 0 Z " fill="#FF7E27" transform="translate(1841,516)"/>
<path d="M0 0 C7.14827673 4.97322542 12.60784319 12.39439728 14.31640625 21.078125 C15.38362714 31.69951385 14.42987736 40.01362677 11.5625 50.52734375 C-10.2175 50.52734375 -31.9975 50.52734375 -54.4375 50.52734375 C-52.15281941 59.77409195 -52.15281941 59.77409195 -46.4375 65.52734375 C-41.10688191 67.30421645 -34.64858779 67.5919206 -29.26953125 65.80859375 C-26.37249384 64.22257768 -24.32231782 62.39517617 -22.15942383 59.91333008 C-18.78446735 56.95490783 -17.24780889 56.93806729 -12.82421875 57.0390625 C-11.57705078 57.05517578 -10.32988281 57.07128906 -9.04492188 57.08789062 C-7.75134766 57.12978516 -6.45777344 57.17167969 -5.125 57.21484375 C-3.81208984 57.23740234 -2.49917969 57.25996094 -1.14648438 57.28320312 C2.0910013 57.3420665 5.32617 57.42425571 8.5625 57.52734375 C4.52385544 70.22366831 -4.72985867 79.04764338 -16.25 85.33984375 C-30.03962925 91.72752804 -45.08559679 92.40957013 -59.4375 87.52734375 C-68.47010165 83.12754841 -74.79445297 75.96194942 -78.7109375 66.80078125 C-83.31044599 52.40877081 -79.91732396 36.53492137 -73.75 23.15234375 C-66.11097613 9.00671412 -54.48578236 0.40242318 -39.4375 -4.47265625 C-26.87946098 -8.10513341 -11.08315642 -6.69607367 0 0 Z M-47 25.58984375 C-48.84233171 28.2254741 -49.71784113 30.4134118 -50.4375 33.52734375 C-45.52620815 33.55209057 -40.61495273 33.57022598 -35.70361328 33.58227539 C-34.03335945 33.58729944 -32.36311001 33.5941198 -30.69287109 33.6027832 C-28.29002804 33.61493321 -25.88724321 33.62059138 -23.484375 33.625 C-22.3669693 33.63274193 -22.3669693 33.63274193 -21.22698975 33.64064026 C-17.82247809 33.64100739 -14.69085241 33.60065293 -11.4375 32.52734375 C-12.33721017 26.36365766 -13.32390849 22.54516565 -18.4375 18.52734375 C-28.16894894 12.71321536 -40.42179592 17.21046474 -47 25.58984375 Z " fill="#FF7E27" transform="translate(1689.4375,538.47265625)"/>
<path d="M0 0 C7.18569633 4.99925913 12.60671554 12.42372718 14.31640625 21.1484375 C15.42425497 31.8576418 14.2260902 39.87298294 11.5625 50.52734375 C-10.2175 50.52734375 -31.9975 50.52734375 -54.4375 50.52734375 C-52.15281941 59.77409195 -52.15281941 59.77409195 -46.4375 65.52734375 C-41.10688191 67.30421645 -34.64858779 67.5919206 -29.26953125 65.80859375 C-26.37249384 64.22257768 -24.32231782 62.39517617 -22.15942383 59.91333008 C-18.78446735 56.95490783 -17.24780889 56.93806729 -12.82421875 57.0390625 C-11.57705078 57.05517578 -10.32988281 57.07128906 -9.04492188 57.08789062 C-7.75134766 57.12978516 -6.45777344 57.17167969 -5.125 57.21484375 C-3.81208984 57.23740234 -2.49917969 57.25996094 -1.14648438 57.28320312 C2.0910013 57.3420665 5.32617 57.42425571 8.5625 57.52734375 C4.52385544 70.22366831 -4.72985867 79.04764338 -16.25 85.33984375 C-30.04721976 91.73104414 -45.07750369 92.40014455 -59.4375 87.52734375 C-67.2895864 83.75834228 -74.13071523 77.47880852 -77.82421875 69.55078125 C-83.23194855 53.95375003 -80.51709812 37.85523103 -73.75 23.15234375 C-66.11097613 9.00671412 -54.48578236 0.40242318 -39.4375 -4.47265625 C-26.87946098 -8.10513341 -11.08315642 -6.69607367 0 0 Z M-46.4375 24.46484375 C-48.40418406 27.47632872 -49.37508719 30.11718833 -50.4375 33.52734375 C-45.5078976 33.5520583 -40.57833126 33.57021066 -35.64868164 33.58227539 C-33.97159192 33.58730488 -32.29450658 33.59412923 -30.61743164 33.6027832 C-28.207183 33.61490934 -25.79699232 33.6205859 -23.38671875 33.625 C-22.63662033 33.63016129 -21.88652191 33.63532257 -21.11369324 33.64064026 C-17.94798768 33.6409816 -15.46412028 33.53621718 -12.4375 32.52734375 C-12.10985697 28.43180593 -12.20680331 25.98873712 -14.0625 22.27734375 C-17.33973225 18.48265377 -19.90903859 16.88570836 -24.91796875 16.17578125 C-33.27160381 15.72805469 -40.72475857 18.13405719 -46.4375 24.46484375 Z " fill="#FF7E27" transform="translate(2167.4375,538.47265625)"/>
<path d="M0 0 C0.89976562 -0.020625 1.79953125 -0.04125 2.7265625 -0.0625 C13.72404098 -0.1257039 22.60411043 2.89333656 30.875 10.25 C38.67430376 19.10015732 40.19706822 28.66758911 40.2734375 40.1484375 C39.74306357 45.60816912 38.20541271 50.92834914 36.875 56.25 C15.095 56.25 -6.685 56.25 -29.125 56.25 C-26.812881 65.49635632 -26.812881 65.49635632 -21.125 71.25 C-16.3635601 73.63071995 -8.86913722 73.13118891 -3.88671875 71.53125 C-1.01460693 69.95190692 1.00569128 68.09977869 3.14916992 65.63598633 C6.5270954 62.67920481 8.06352697 62.66069696 12.48828125 62.76171875 C13.73544922 62.77783203 14.98261719 62.79394531 16.26757812 62.81054688 C17.56115234 62.85244141 18.85472656 62.89433594 20.1875 62.9375 C21.50041016 62.96005859 22.81332031 62.98261719 24.16601562 63.00585938 C27.4035013 63.06472275 30.63867 63.14691196 33.875 63.25 C29.83635544 75.94632456 20.58264133 84.77029963 9.0625 91.0625 C-3.71612319 96.97261323 -17.81125959 98.12732622 -31.34375 94.28125 C-40.43307603 90.91105046 -48.35732434 84.1205909 -52.51171875 75.30859375 C-57.6477187 60.62143599 -55.69830469 45.28709399 -49.83984375 31.1484375 C-42.7969533 17.21960123 -31.57844652 7.43989349 -17.04296875 2.1953125 C-11.21948773 0.30872293 -6.10288376 0.03409432 0 0 Z M-21.8984375 31.56640625 C-24.52993886 35.03082463 -24.52993886 35.03082463 -25.125 39.25 C-20.1953976 39.27471455 -15.26583126 39.29286691 -10.33618164 39.30493164 C-8.65909192 39.30996113 -6.98200658 39.31678548 -5.30493164 39.32543945 C-2.894683 39.33756559 -0.48449232 39.34324215 1.92578125 39.34765625 C2.67587967 39.35281754 3.42597809 39.35797882 4.19880676 39.36329651 C7.36451232 39.36363785 9.84837972 39.25887343 12.875 38.25 C13.16815452 33.26637315 13.13994218 30.14686647 9.875 26.25 C4.68611207 22.16513078 0.35946622 21.61756435 -6.19140625 21.87109375 C-13.29715803 22.7888806 -17.51149907 26.06435219 -21.8984375 31.56640625 Z " fill="#FF7E27" transform="translate(922.125,532.75)"/>
<path d="M0 0 C3.48071029 2.72009198 6.18192756 5.49276045 8.69921875 9.109375 C9.1478125 9.73585938 9.59640625 10.36234375 10.05859375 11.0078125 C16.84644142 21.10972697 18.35522643 31.52376377 16.04296875 43.51171875 C11.9988512 58.17164486 4.24993333 66.96171454 -8.78125 74.5546875 C-18.37164956 78.91534612 -32.50885184 79.36361748 -42.453125 75.8515625 C-54.93600012 70.02351006 -63.96356156 60.31245408 -68.67236328 47.39086914 C-71.40193437 37.48106268 -70.72734637 23.96077448 -66.109375 14.81640625 C-59.30618674 4.63366442 -50.04117747 -4.87635032 -38.01171875 -8.421875 C-23.65772362 -10.90383381 -11.8836315 -8.33832274 0 0 Z " fill="#FDFDFE" transform="translate(2103.30078125,311.890625)"/>
<path d="M0 0 C22.77 0 45.54 0 69 0 C68 11 68 11 66 21 C51.81 21 37.62 21 23 21 C21.68 29.25 20.36 37.5 19 46 C37.315 46.495 37.315 46.495 56 47 C54 64 54 64 53 68 C40.13 68 27.26 68 14 68 C13.505 73.94 13.505 73.94 13 80 C12.01 84.95 11.02 89.9 10 95 C24.19 95 38.38 95 53 95 C50 114 50 114 49 116 C26.23 116 3.46 116 -20 116 C-18.8749777 105.87479926 -18.8749777 105.87479926 -18.203125 102.03434753 C-18.05174072 101.16109833 -17.90035645 100.28784912 -17.74438477 99.38813782 C-17.58123779 98.46365341 -17.41809082 97.53916901 -17.25 96.58666992 C-17.075896 95.58716309 -16.90179199 94.58765625 -16.72241211 93.55786133 C-16.15098639 90.28158344 -15.57558299 87.00601862 -15 83.73046875 C-14.60005951 81.44366407 -14.20032304 79.15682371 -13.80078125 76.86994934 C-12.96526772 72.0911367 -12.1278876 67.31265627 -11.2890625 62.53442383 C-10.21346414 56.40706314 -9.14161941 50.27905334 -8.07104492 44.1508131 C-7.24694289 39.43493912 -6.42133284 34.71933019 -5.59521484 30.00380898 C-5.19934347 27.74360727 -4.80383392 25.48334216 -4.40869141 23.22301292 C-3.85725833 20.07053553 -3.30390962 16.91840049 -2.75 13.76635742 C-2.58685303 12.83175186 -2.42370605 11.8971463 -2.25561523 10.93421936 C-2.10423096 10.07506927 -1.95284668 9.21591919 -1.796875 8.33073425 C-1.66635742 7.58655337 -1.53583984 6.84237249 -1.40136719 6.07564068 C-1.00677845 4.03505424 -0.50408294 2.01633174 0 0 Z " fill="#FF7E27" transform="translate(1199,511)"/>
<path d="M0 0 C1.084021 0.00523682 2.16804199 0.01047363 3.28491211 0.01586914 C4.45473633 0.0190918 5.62456055 0.02231445 6.82983398 0.02563477 C8.0615332 0.03401367 9.29323242 0.04239258 10.56225586 0.05102539 C12.41560547 0.05779297 12.41560547 0.05779297 14.30639648 0.06469727 C17.37089703 0.07652931 20.43530307 0.09301366 23.49975586 0.11352539 C19.89624023 21.73461914 19.89624023 21.73461914 19.50076294 24.1038208 C19.23589557 25.69547729 18.97262398 27.2874001 18.71090698 28.87957764 C18.04295624 32.93039224 17.34733193 36.97279937 16.59594727 41.0090332 C16.45208084 41.80455597 16.30821442 42.60007874 16.1599884 43.41970825 C15.88910162 44.91337171 15.6087302 46.40536368 15.31645203 47.89498901 C14.21098857 54.09030532 14.36572414 60.04496898 16.56225586 65.98852539 C19.42205494 69.12507922 22.36129858 70.30882536 26.49975586 71.11352539 C32.76739028 71.28292092 38.34185268 69.96183022 43.09350586 65.67602539 C49.97650919 58.38813951 51.13592175 48.6598843 52.76147461 39.07836914 C52.95699417 37.95910538 53.15251373 36.83984161 53.35395813 35.68666077 C53.97154477 32.14253927 54.57954437 28.59685209 55.18725586 25.05102539 C55.60654333 22.63489959 56.02645885 20.21888268 56.44702148 17.80297852 C57.4730448 11.90789781 58.48606356 6.01079191 59.49975586 0.11352539 C68.07975586 0.11352539 76.65975586 0.11352539 85.49975586 0.11352539 C85.49975586 7.98852539 85.49975586 7.98852539 84.93029785 11.22019958 C84.74097939 12.32005943 84.74097939 12.32005943 84.5478363 13.44213867 C84.40757523 14.22113525 84.26731415 15.00013184 84.12280273 15.80273438 C83.97649918 16.64256363 83.83019562 17.48239288 83.67945862 18.34767151 C83.19808969 21.10267248 82.70836211 23.85611576 82.21850586 26.60961914 C81.8816841 28.52766484 81.545388 30.44580291 81.20959473 32.36402893 C80.32708176 37.39712349 79.43745747 42.42893556 78.54632568 47.46051025 C77.63716521 52.6012518 76.73476447 57.74317922 75.83178711 62.88500977 C74.06104123 72.96235387 72.28215396 83.0382357 70.49975586 93.11352539 C61.58975586 93.11352539 52.67975586 93.11352539 43.49975586 93.11352539 C43.49975586 91.13352539 43.49975586 89.15352539 43.49975586 87.11352539 C42.25258789 87.74581055 42.25258789 87.74581055 40.98022461 88.39086914 C39.89354492 88.9387207 38.80686523 89.48657227 37.68725586 90.05102539 C36.60831055 90.59629883 35.52936523 91.14157227 34.41772461 91.70336914 C29.07252065 94.28652661 24.69800499 94.36263734 18.87475586 94.42602539 C18.00979492 94.4550293 17.14483398 94.4840332 16.25366211 94.51391602 C7.00376679 94.60405742 -0.02740226 91.36819534 -6.77368164 85.10571289 C-13.1268472 77.77513724 -13.98127332 68.45351723 -13.50024414 59.11352539 C-12.92923251 54.57679305 -12.14410077 50.08430253 -11.34790039 45.58227539 C-11.12831161 44.31001099 -10.90872284 43.03774658 -10.68247986 41.72692871 C-10.22057426 39.05352167 -9.75364411 36.38106046 -9.28271484 33.70922852 C-8.6784015 30.27955809 -8.0844614 26.84819043 -7.49388981 23.41613007 C-6.92881103 20.13740488 -6.35700606 16.85986926 -5.78540039 13.58227539 C-5.57182388 12.34699097 -5.35824738 11.11170654 -5.13819885 9.83898926 C-4.93806686 8.7069104 -4.73793488 7.57483154 -4.53173828 6.40844727 C-4.26859581 4.90695129 -4.26859581 4.90695129 -4.00013733 3.37512207 C-3.30855018 0.24627127 -3.24617933 0.14739512 0 0 Z " fill="#FF7E27" transform="translate(1879.500244140625,533.886474609375)"/>
<path d="M0 0 C8.92085973 7.43404977 14.81537951 15.66153466 15.96484375 27.33984375 C16.69708426 40.53490848 14.67257112 49.28986456 6.14453125 59.61328125 C-1.07215819 67.38802751 -9.93660712 72.80674705 -20.75390625 73.30859375 C-33.65530767 73.48694723 -42.93055216 72.1082939 -52.703125 63.0078125 C-61.41369551 54.24559829 -66.10770113 45.16041527 -66.078125 32.6328125 C-66.05718449 25.91524234 -65.33612231 20.79937639 -61.703125 15.0078125 C-61.30609375 14.30269531 -60.9090625 13.59757812 -60.5 12.87109375 C-58.03909394 8.65796028 -55.3470302 5.29621476 -51.703125 2.0078125 C-50.775 1.1621875 -49.846875 0.3165625 -48.890625 -0.5546875 C-34.84042025 -12.03384963 -14.13632472 -10.4183896 0 0 Z " fill="#FDFDFE" transform="translate(2514.703125,72.9921875)"/>
<path d="M0 0 C0.96873047 0.00612305 1.93746094 0.01224609 2.93554688 0.01855469 C9.93888672 0.17182643 15.90684671 1.01455466 22.125 4.4375 C23.218125 5.035625 24.31125 5.63375 25.4375 6.25 C32.13076273 11.69800455 35.46318194 16.88899522 37.125 25.4375 C37.5 30.6875 37.5 30.6875 36.125 33.4375 C28.205 33.4375 20.285 33.4375 12.125 33.4375 C11.465 30.7975 10.805 28.1575 10.125 25.4375 C7.81102815 22.56817491 5.32421906 22.1418142 1.8125 21.5625 C-2.96286629 21.19152113 -5.83418758 21.82780865 -9.875 24.4375 C-10.93249557 27.52119887 -10.93249557 27.52119887 -10.875 30.4375 C-5.43867076 35.56655846 1.59649664 37.76697024 8.40234375 40.55078125 C17.85906413 44.51889529 25.71942431 48.48451527 31.125 57.4375 C33.26458615 63.85625846 33.44285998 72.53779387 30.6875 78.8125 C25.12686913 87.90461925 16.64020811 92.30778304 6.7265625 95.1171875 C-6.25813056 98.18476871 -20.51458667 97.23178772 -32.3125 90.75 C-38.75090272 86.5414831 -42.05188415 81.49528962 -44.875 74.4375 C-44.875 70.8075 -44.875 67.1775 -44.875 63.4375 C-36.295 63.1075 -27.715 62.7775 -18.875 62.4375 C-18.215 65.4075 -17.555 68.3775 -16.875 71.4375 C-12.77727779 74.81812082 -8.4140061 74.90058015 -3.28515625 74.72265625 C0.10212242 74.32189232 2.38707819 73.47339057 5.125 71.4375 C6.36184105 69.00650326 6.36184105 69.00650326 6.125 66.4375 C3.71329603 63.21906407 0.45363028 62.1218633 -3.1875 60.625 C-3.80197998 60.36638184 -4.41645996 60.10776367 -5.04956055 59.84130859 C-8.21451772 58.51187359 -11.3925422 57.23689804 -14.59375 55.99609375 C-24.04111329 52.22741731 -32.11086689 48.1563265 -36.4375 38.5 C-38.75764631 31.55020393 -38.81885839 25.18318015 -35.90625 18.4140625 C-30.8084252 8.64323163 -23.6623021 4.39217086 -13.39282227 1.05932617 C-8.94630849 -0.03882864 -4.55971363 -0.04897821 0 0 Z " fill="#FF7E27" transform="translate(1313.875,532.5625)"/>
<path d="M0 0 C8.58 0 17.16 0 26 0 C25.690625 2.701875 25.38125 5.40375 25.0625 8.1875 C24.96718994 9.02949951 24.87187988 9.87149902 24.77368164 10.73901367 C24.65561157 11.75572144 24.65561157 11.75572144 24.53515625 12.79296875 C24.456604 13.4789917 24.37805176 14.16501465 24.29711914 14.87182617 C23.96318354 17.2637051 23.4736356 19.63182198 23 22 C29.27 22 35.54 22 42 22 C41.4183462 29.46455715 40.4316515 36.65085565 39 44 C32.07 44 25.14 44 18 44 C17.88785156 45.49917969 17.77570313 46.99835937 17.66015625 48.54296875 C16.93325557 56.54656833 15.4746534 64.4258192 14.08129883 72.33422852 C13.73626371 74.30152563 13.39735774 76.26989457 13.05859375 78.23828125 C12.85548584 79.39368408 12.65237793 80.54908691 12.44311523 81.73950195 C12.01713785 84.87389754 11.91892511 87.84166936 12 91 C15.56086658 92.18695553 18.97331024 92.35095418 22.6875 92.5625 C23.7403418 92.62727539 23.7403418 92.62727539 24.81445312 92.69335938 C26.54275206 92.7991736 28.2713511 92.90006581 30 93 C29.52759949 96.48012082 29.0459514 99.95889854 28.5625 103.4375 C28.42779297 104.43072266 28.29308594 105.42394531 28.15429688 106.44726562 C28.02216797 107.39150391 27.89003906 108.33574219 27.75390625 109.30859375 C27.57323608 110.62041626 27.57323608 110.62041626 27.38891602 111.95874023 C27 114 27 114 26 115 C22.02918025 115.3124085 18.04407036 115.27870059 14.0625 115.3125 C12.95841797 115.34150391 11.85433594 115.37050781 10.71679688 115.40039062 C2.99728245 115.45966628 -4.44598117 114.70743408 -10.64819336 109.65820312 C-15.71369969 104.14716644 -16.28519466 97.72065396 -16.23852539 90.6003418 C-15.70084207 82.48446065 -14.02297303 74.49102618 -12.5625 66.5 C-12.23290876 64.64858244 -11.9041262 62.79702072 -11.57617188 60.9453125 C-11.26114491 59.1821614 -10.94541532 57.41913565 -10.62890625 55.65625 C-10.48095108 54.83129028 -10.33299591 54.00633057 -10.18055725 53.15637207 C-9.60680691 50.02239207 -9.00895058 47.02685173 -8 44 C-11.3 44 -14.6 44 -18 44 C-17.51060037 36.5044583 -16.61855599 29.33745381 -15 22 C-11.37 22 -7.74 22 -4 22 C-3.79503906 20.57945312 -3.59007812 19.15890625 -3.37890625 17.6953125 C-3.1069511 15.83851526 -2.83480584 13.98174585 -2.5625 12.125 C-2.36043945 10.71927734 -2.36043945 10.71927734 -2.15429688 9.28515625 C-2.02216797 8.38925781 -1.89003906 7.49335937 -1.75390625 6.5703125 C-1.63345947 5.74289551 -1.5130127 4.91547852 -1.38891602 4.06298828 C-1 2 -1 2 0 0 Z " fill="#FF7E27" transform="translate(1565,512)"/>
<path d="M0 0 C1.084021 0.00523682 2.16804199 0.01047363 3.28491211 0.01586914 C4.45473633 0.0190918 5.62456055 0.02231445 6.82983398 0.02563477 C8.0615332 0.03401367 9.29323242 0.04239258 10.56225586 0.05102539 C12.41560547 0.05779297 12.41560547 0.05779297 14.30639648 0.06469727 C17.37086999 0.07652921 20.43531879 0.09446531 23.49975586 0.11352539 C22.50975586 7.04352539 21.51975586 13.97352539 20.49975586 21.11352539 C26.76975586 21.44352539 33.03975586 21.77352539 39.49975586 22.11352539 C39.19038086 24.62977539 38.88100586 27.14602539 38.56225586 29.73852539 C38.4669458 30.51921387 38.37163574 31.29990234 38.2734375 32.10424805 C38.19472412 32.7389502 38.11601074 33.37365234 38.03491211 34.02758789 C37.95635986 34.66647949 37.87780762 35.30537109 37.796875 35.96362305 C37.42028671 38.68855032 36.95198898 41.40012668 36.49975586 44.11352539 C29.56975586 44.11352539 22.63975586 44.11352539 15.49975586 44.11352539 C15.25225586 46.27915039 15.00475586 48.44477539 14.74975586 50.67602539 C13.77524086 58.85792736 12.35184227 66.94677173 10.82104492 75.04150391 C9.82139005 80.50228398 9.30334693 85.56169977 9.49975586 91.11352539 C13.06062244 92.30048092 16.4730661 92.46447957 20.18725586 92.67602539 C21.24009766 92.74080078 21.24009766 92.74080078 22.31420898 92.80688477 C24.04250792 92.91269899 25.77110696 93.0135912 27.49975586 93.11352539 C27.02480534 96.21835245 26.54406837 99.3222564 26.06225586 102.42602539 C25.92754883 103.30709961 25.7928418 104.18817383 25.65405273 105.09594727 C25.52192383 105.94350586 25.38979492 106.79106445 25.25366211 107.66430664 C25.07299194 108.83473511 25.07299194 108.83473511 24.88867188 110.02880859 C24.49975586 112.11352539 24.49975586 112.11352539 23.49975586 115.11352539 C19.49989656 115.20136014 15.50028882 115.25419641 11.49975586 115.30102539 C10.3744043 115.32616211 9.24905273 115.35129883 8.08959961 115.37719727 C0.09093658 115.44736098 -6.21511795 114.75454163 -12.81274414 109.86352539 C-18.74658549 103.79168773 -18.82199594 98.56654331 -18.75415039 90.390625 C-18.43224084 82.87042319 -16.93016302 75.46418351 -15.56445312 68.07739258 C-15.0562646 65.32847596 -14.56493869 62.57693645 -14.07641602 59.82446289 C-13.76160768 58.0716884 -13.44588715 56.31907743 -13.12915039 54.56665039 C-12.98119522 53.74594055 -12.83324005 52.92523071 -12.68080139 52.07965088 C-11.61852951 46.35009612 -11.61852951 46.35009612 -10.50024414 44.11352539 C-13.80024414 44.11352539 -17.10024414 44.11352539 -20.50024414 44.11352539 C-20.05786029 36.58135824 -19.36119186 29.43325309 -17.50024414 22.11352539 C-13.87024414 22.11352539 -10.24024414 22.11352539 -6.50024414 22.11352539 C-6.2952832 20.60918945 -6.09032227 19.10485352 -5.87915039 17.55493164 C-5.60723502 15.59526568 -5.33508764 13.6356319 -5.06274414 11.67602539 C-4.92803711 10.68280273 -4.79333008 9.68958008 -4.65454102 8.66625977 C-4.45634766 7.24990234 -4.45634766 7.24990234 -4.25415039 5.80493164 C-4.13370361 4.9303833 -4.01325684 4.05583496 -3.88916016 3.15478516 C-3.31894733 0.16197318 -3.09889235 0.14070744 0 0 Z " fill="#FF7E27" transform="translate(1387.500244140625,511.886474609375)"/>
<path d="M0 0 C8.91 0 17.82 0 27 0 C22.84706343 25.1550138 18.56805328 50.28661944 14.19360352 75.40405273 C13.33823974 80.3167643 12.48791771 85.23033622 11.63852978 90.14408398 C10.97636322 93.96961053 10.31067612 97.79451813 9.64397621 101.61925697 C9.32806505 103.43519454 9.01348638 105.25136444 8.70027733 107.06777 C8.26901011 109.56692559 7.83279196 112.06516653 7.39526367 114.56323242 C7.26802414 115.30724304 7.14078461 116.05125366 7.00968933 116.81781006 C6.11414376 121.88585624 6.11414376 121.88585624 5 123 C3.07332493 123.08748207 1.14348139 123.10697334 -0.78515625 123.09765625 C-2.53989258 123.09282227 -2.53989258 123.09282227 -4.33007812 123.08789062 C-6.17762695 123.07532227 -6.17762695 123.07532227 -8.0625 123.0625 C-9.91584961 123.05573242 -9.91584961 123.05573242 -11.80664062 123.04882812 C-14.87114349 123.03699607 -17.93554036 123.01967435 -21 123 C-19.40465466 109.54719864 -17.01399679 96.24487111 -14.6484375 82.91015625 C-14.22503896 80.51025616 -13.80191737 78.11030719 -13.37905884 75.71031189 C-12.27379069 69.44149724 -11.16479988 63.17334691 -10.05499268 56.90533447 C-8.91979871 50.49002638 -7.78818169 44.07408747 -6.65625 37.65820312 C-4.44097054 25.10485343 -2.22142109 12.55226434 0 0 Z " fill="#FF7E27" transform="translate(1104,504)"/>
<path d="M0 0 C0.79921875 0.00902344 1.5984375 0.01804687 2.421875 0.02734375 C3.02515625 0.03894531 3.6284375 0.05054688 4.25 0.0625 C3.75137275 9.29570113 2.20827206 18.04705884 0.25 27.0625 C-0.57242188 27.08828125 -1.39484375 27.1140625 -2.2421875 27.140625 C-14.39925642 27.64529738 -14.39925642 27.64529738 -24.41796875 33.85791016 C-28.64231954 40.00048995 -30.14959947 45.63308321 -31.3125 52.9375 C-31.50739014 54.04851074 -31.70228027 55.15952148 -31.90307617 56.30419922 C-32.31631161 58.66041532 -32.72148715 61.01805729 -33.11914062 63.37695312 C-33.9674941 68.33312345 -34.89194374 73.27392494 -35.81933594 78.21582031 C-36.8073372 83.49597951 -37.77683179 88.77958686 -38.75 94.0625 C-47.33 94.0625 -55.91 94.0625 -64.75 94.0625 C-63.60085969 80.27281627 -63.60085969 80.27281627 -62.3671875 73.37231445 C-62.23209778 72.59188278 -62.09700806 71.81145111 -61.95782471 71.00737 C-61.51878451 68.47922762 -61.07215857 65.95249921 -60.625 63.42578125 C-60.3145906 61.65176931 -60.00453816 59.87769489 -59.69482422 58.1035614 C-59.04928317 54.41259412 -58.4000665 50.72229889 -57.74804688 47.0324707 C-56.91102421 42.29443438 -56.08245039 37.55496652 -55.25643921 32.81499958 C-54.61948315 29.16435752 -53.97861617 25.51441085 -53.33648682 21.86467552 C-53.02917011 20.11568767 -52.72297445 18.36650245 -52.41790771 16.61712074 C-51.99345885 14.18715208 -51.56387555 11.75814849 -51.1328125 9.3293457 C-51.00706848 8.60373444 -50.88132446 7.87812317 -50.75177002 7.13052368 C-49.86434448 2.17684448 -49.86434448 2.17684448 -48.75 1.0625 C-46.82332493 0.97501793 -44.89348139 0.95552666 -42.96484375 0.96484375 C-41.79501953 0.96806641 -40.62519531 0.97128906 -39.41992188 0.97460938 C-38.18822266 0.98298828 -36.95652344 0.99136719 -35.6875 1 C-33.83415039 1.00676758 -33.83415039 1.00676758 -31.94335938 1.01367188 C-28.87885883 1.02550392 -25.81445279 1.04198827 -22.75 1.0625 C-23.08 4.3625 -23.41 7.6625 -23.75 11.0625 C-22.76 10.155 -21.77 9.2475 -20.75 8.3125 C-14.62907301 3.06067015 -8.13478088 -0.11962913 0 0 Z " fill="#FF7E27" transform="translate(2254.75,532.9375)"/>
</svg>
